<?xml version="1.0" encoding="UTF-8" standalone="no"?>
<!DOCTYPE svg PUBLIC "-//W3C//DTD SVG 1.1//EN"
 "http://www.w3.org/Graphics/SVG/1.1/DTD/svg11.dtd">
<!-- Generated by graphviz version 14.1.0 (0)
 -->
<!-- Title: TD Pages: 1 -->
<svg width="432pt" height="80pt"
 viewBox="0.00 0.00 432.00 80.00" xmlns="http://www.w3.org/2000/svg" xmlns:xlink="http://www.w3.org/1999/xlink">
<g id="graph0" class="graph" transform="scale(0.125975 0.125975) rotate(0) translate(4 630.55)">
<title>TD</title>
<polygon fill="white" stroke="none" points="-4,4 -4,-630.55 3425.25,-630.55 3425.25,4 -4,4"/>
<text xml:space="preserve" text-anchor="middle" x="1710.62" y="-7.2" font-family="Times New Roman,serif" font-size="14.00">A_model_graph</text>
<!-- INTEREST_IN_CURRENCY__10_HIST_DOM -->
<g id="node1" class="node">
<title>INTEREST_IN_CURRENCY__10_HIST_DOM</title>
<g id="a_node1"><a xlink:title="INTEREST_IN_CURRENCY__10_HIST_DOM&#10;FRML &lt;&gt; INTEREST_IN_CURRENCY__10_HIST_DOM = STOCK_PRIMO_IN_CURRENCY__10_HIST_DOM*3/100 $">
<polygon fill="#63b8ff" stroke="black" points="2888.05,-132.23 2604.95,-132.23 2604.95,-96.23 2888.05,-96.23 2888.05,-132.23"/>
<g id="a_node1_0"><a xlink:title="INTEREST_IN_CURRENCY__10_HIST_DOM&#10;FRML &lt;&gt; INTEREST_IN_CURRENCY__10_HIST_DOM = STOCK_PRIMO_IN_CURRENCY__10_HIST_DOM*3/100 $">
<text xml:space="preserve" text-anchor="start" x="2610.75" y="-109.18" font-family="Times New Roman,serif" font-size="14.00" fill="blue">INTEREST_IN_CURRENCY__10_HIST_DOM:</text>
</a>
</g>
</a>
</g>
</g>
<!-- INTEREST_PAYMENTS__10_HIST_DOM -->
<g id="node7" class="node">
<title>INTEREST_PAYMENTS__10_HIST_DOM</title>
<g id="a_node7"><a xlink:title="INTEREST_PAYMENTS__10_HIST_DOM&#10;FRML &lt;SUM=HIST&gt; INTEREST_PAYMENTS__10_HIST_DOM = INTEREST_IN_CURRENCY__10_HIST_DOM*DOM_DOM $">
<polygon fill="#63b8ff" stroke="black" points="3184.65,-178.23 2924.05,-178.23 2924.05,-142.23 3184.65,-142.23 3184.65,-178.23"/>
<g id="a_node7_1"><a xlink:title="INTEREST_PAYMENTS__10_HIST_DOM&#10;FRML &lt;SUM=HIST&gt; INTEREST_PAYMENTS__10_HIST_DOM = INTEREST_IN_CURRENCY__10_HIST_DOM*DOM_DOM $">
<text xml:space="preserve" text-anchor="start" x="2929.85" y="-155.18" font-family="Times New Roman,serif" font-size="14.00" fill="blue">INTEREST_PAYMENTS__10_HIST_DOM:</text>
</a>
</g>
</a>
</g>
</g>
<!-- INTEREST_IN_CURRENCY__10_HIST_DOM&#45;&gt;INTEREST_PAYMENTS__10_HIST_DOM -->
<g id="edge20" class="edge">
<title>INTEREST_IN_CURRENCY__10_HIST_DOM&#45;&gt;INTEREST_PAYMENTS__10_HIST_DOM</title>
<g id="a_edge20"><a xlink:href="bogus" xlink:title="NA">
<path fill="none" stroke="black" stroke-width="0.5" d="M2870.14,-132.67C2886.65,-135.16 2903.66,-137.72 2920.34,-140.23"/>
<polygon fill="black" stroke="black" stroke-width="0.5" points="2919.53,-143.64 2929.94,-141.67 2920.57,-136.72 2919.53,-143.64"/>
</a>
</g>
</g>
<!-- STOCK_PRIMO__HIST -->
<g id="node2" class="node">
<title>STOCK_PRIMO__HIST</title>
<g id="a_node2"><a xlink:title="STOCK_PRIMO__HIST&#10;FRML &lt;SUM=HIST&gt; STOCK_PRIMO__HIST = (STOCK_PRIMO__10_HIST_DOM+STOCK_PRIMO__10_HIST_USD) $">
<polygon fill="#63b8ff" stroke="black" points="3130.65,-343.23 2978.05,-343.23 2978.05,-307.23 3130.65,-307.23 3130.65,-343.23"/>
<g id="a_node2_2"><a xlink:title="STOCK_PRIMO__HIST&#10;FRML &lt;SUM=HIST&gt; STOCK_PRIMO__HIST = (STOCK_PRIMO__10_HIST_DOM+STOCK_PRIMO__10_HIST_USD) $">
<text xml:space="preserve" text-anchor="start" x="2983.85" y="-320.18" font-family="Times New Roman,serif" font-size="14.00" fill="blue">STOCK_PRIMO__HIST:</text>
</a>
</g>
</a>
</g>
</g>
<!-- CURRENT_YEAR -->
<g id="node3" class="node">
<title>CURRENT_YEAR</title>
<g id="a_node3"><a xlink:title="CURRENT_YEAR&#10;Exogen">
<polygon fill="yellow" stroke="black" points="121.85,-343.23 0,-343.23 0,-307.23 121.85,-307.23 121.85,-343.23"/>
<g id="a_node3_3"><a xlink:title="CURRENT_YEAR&#10;Exogen">
<text xml:space="preserve" text-anchor="start" x="5.8" y="-320.18" font-family="Times New Roman,serif" font-size="14.00" fill="blue">CURRENT_YEAR:</text>
</a>
</g>
</a>
</g>
</g>
<!-- STOCK_PRIMO_IN_CURRENCY__10_HIST_USD -->
<g id="node4" class="node">
<title>STOCK_PRIMO_IN_CURRENCY__10_HIST_USD</title>
<g id="a_node4"><a xlink:title="STOCK_PRIMO_IN_CURRENCY__10_HIST_USD&#10;FRML &lt;&gt; STOCK_PRIMO_IN_CURRENCY__10_HIST_USD = (CURRENT_YEAR==2025+1)*&#45;20+STOCK_ULTIMO_IN_CURRENCY__10_HIST_USD(&#45;1) $">
<polygon fill="#63b8ff" stroke="black" points="2566.33,-554.23 2257.72,-554.23 2257.72,-518.23 2566.33,-518.23 2566.33,-554.23"/>
<g id="a_node4_4"><a xlink:title="STOCK_PRIMO_IN_CURRENCY__10_HIST_USD&#10;FRML &lt;&gt; STOCK_PRIMO_IN_CURRENCY__10_HIST_USD = (CURRENT_YEAR==2025+1)*&#45;20+STOCK_ULTIMO_IN_CURRENCY__10_HIST_USD(&#45;1) $">
<text xml:space="preserve" text-anchor="start" x="2263.53" y="-531.18" font-family="Times New Roman,serif" font-size="14.00" fill="blue">STOCK_PRIMO_IN_CURRENCY__10_HIST_USD:</text>
</a>
</g>
</a>
</g>
</g>
<!-- CURRENT_YEAR&#45;&gt;STOCK_PRIMO_IN_CURRENCY__10_HIST_USD -->
<g id="edge31" class="edge">
<title>CURRENT_YEAR&#45;&gt;STOCK_PRIMO_IN_CURRENCY__10_HIST_USD</title>
<g id="a_edge31"><a xlink:href="bogus" xlink:title="NA">
<path fill="none" stroke="black" stroke-width="0.5" d="M82.34,-343.68C155.97,-408.27 417.12,-620.23 672.62,-620.23 672.62,-620.23 672.62,-620.23 1372.07,-620.23 1748.78,-620.23 1846.79,-646.64 2219.1,-589.23 2262.66,-582.51 2310.44,-569.34 2347.44,-557.8"/>
<polygon fill="black" stroke="black" stroke-width="0.5" points="2348.37,-561.18 2356.85,-554.83 2346.26,-554.51 2348.37,-561.18"/>
</a>
</g>
</g>
<!-- LOGICAL_AMORTIZING_YEARS__10_HIST_USD -->
<g id="node15" class="node">
<title>LOGICAL_AMORTIZING_YEARS__10_HIST_USD</title>
<g id="a_node15"><a xlink:title="LOGICAL_AMORTIZING_YEARS__10_HIST_USD&#10;FRML &lt;&gt; LOGICAL_AMORTIZING_YEARS__10_HIST_USD = (2025+0)&lt;CURRENT_YEAR&lt;=(2025+10) $">
<polygon fill="#63b8ff" stroke="black" points="475.83,-370.23 160.48,-370.23 160.48,-334.23 475.83,-334.23 475.83,-370.23"/>
<g id="a_node15_5"><a xlink:title="LOGICAL_AMORTIZING_YEARS__10_HIST_USD&#10;FRML &lt;&gt; LOGICAL_AMORTIZING_YEARS__10_HIST_USD = (2025+0)&lt;CURRENT_YEAR&lt;=(2025+10) $">
<text xml:space="preserve" text-anchor="start" x="166.28" y="-347.18" font-family="Times New Roman,serif" font-size="14.00" fill="blue">LOGICAL_AMORTIZING_YEARS__10_HIST_USD:</text>
</a>
</g>
</a>
</g>
</g>
<!-- CURRENT_YEAR&#45;&gt;LOGICAL_AMORTIZING_YEARS__10_HIST_USD -->
<g id="edge32" class="edge">
<title>CURRENT_YEAR&#45;&gt;LOGICAL_AMORTIZING_YEARS__10_HIST_USD</title>
<g id="a_edge32"><a xlink:href="bogus" xlink:title="NA">
<path fill="none" stroke="black" stroke-width="0.5" d="M122.09,-331.59C130.74,-332.51 139.98,-333.49 149.56,-334.5"/>
<polygon fill="black" stroke="black" stroke-width="0.5" points="149,-337.96 159.31,-335.53 149.74,-331 149,-337.96"/>
</a>
</g>
</g>
<!-- LOGICAL_AMORTIZING_YEARS__10_HIST_DOM -->
<g id="node28" class="node">
<title>LOGICAL_AMORTIZING_YEARS__10_HIST_DOM</title>
<g id="a_node28"><a xlink:title="LOGICAL_AMORTIZING_YEARS__10_HIST_DOM&#10;FRML &lt;&gt; LOGICAL_AMORTIZING_YEARS__10_HIST_DOM = (2025+0)&lt;CURRENT_YEAR&lt;=(2025+10) $">
<polygon fill="#63b8ff" stroke="black" points="478.45,-316.23 157.85,-316.23 157.85,-280.23 478.45,-280.23 478.45,-316.23"/>
<g id="a_node28_6"><a xlink:title="LOGICAL_AMORTIZING_YEARS__10_HIST_DOM&#10;FRML &lt;&gt; LOGICAL_AMORTIZING_YEARS__10_HIST_DOM = (2025+0)&lt;CURRENT_YEAR&lt;=(2025+10) $">
<text xml:space="preserve" text-anchor="start" x="163.65" y="-293.18" font-family="Times New Roman,serif" font-size="14.00" fill="blue">LOGICAL_AMORTIZING_YEARS__10_HIST_DOM:</text>
</a>
</g>
</a>
</g>
</g>
<!-- CURRENT_YEAR&#45;&gt;LOGICAL_AMORTIZING_YEARS__10_HIST_DOM -->
<g id="edge2" class="edge">
<title>CURRENT_YEAR&#45;&gt;LOGICAL_AMORTIZING_YEARS__10_HIST_DOM</title>
<g id="a_edge2"><a xlink:href="bogus" xlink:title="NA">
<path fill="none" stroke="black" stroke-width="0.5" d="M122.09,-318.87C129.94,-318.03 138.28,-317.15 146.91,-316.24"/>
<polygon fill="black" stroke="black" stroke-width="0.5" points="147.24,-319.72 156.82,-315.19 146.51,-312.76 147.24,-319.72"/>
</a>
</g>
</g>
<!-- STOCK_PRIMO_IN_CURRENCY__10_HIST_DOM -->
<g id="node29" class="node">
<title>STOCK_PRIMO_IN_CURRENCY__10_HIST_DOM</title>
<g id="a_node29"><a xlink:title="STOCK_PRIMO_IN_CURRENCY__10_HIST_DOM&#10;FRML &lt;&gt; STOCK_PRIMO_IN_CURRENCY__10_HIST_DOM = (CURRENT_YEAR==2025+1)*1000+STOCK_ULTIMO_IN_CURRENCY__10_HIST_DOM(&#45;1) $">
<polygon fill="#63b8ff" stroke="black" points="2568.95,-132.23 2255.1,-132.23 2255.1,-96.23 2568.95,-96.23 2568.95,-132.23"/>
<g id="a_node29_7"><a xlink:title="STOCK_PRIMO_IN_CURRENCY__10_HIST_DOM&#10;FRML &lt;&gt; STOCK_PRIMO_IN_CURRENCY__10_HIST_DOM = (CURRENT_YEAR==2025+1)*1000+STOCK_ULTIMO_IN_CURRENCY__10_HIST_DOM(&#45;1) $">
<text xml:space="preserve" text-anchor="start" x="2260.9" y="-109.18" font-family="Times New Roman,serif" font-size="14.00" fill="blue">STOCK_PRIMO_IN_CURRENCY__10_HIST_DOM:</text>
</a>
</g>
</a>
</g>
</g>
<!-- CURRENT_YEAR&#45;&gt;STOCK_PRIMO_IN_CURRENCY__10_HIST_DOM -->
<g id="edge37" class="edge">
<title>CURRENT_YEAR&#45;&gt;STOCK_PRIMO_IN_CURRENCY__10_HIST_DOM</title>
<g id="a_edge37"><a xlink:href="bogus" xlink:title="NA">
<path fill="none" stroke="black" stroke-width="0.5" d="M82.34,-306.78C155.97,-242.19 417.12,-30.23 672.62,-30.23 672.62,-30.23 672.62,-30.23 1372.07,-30.23 1748.8,-30.23 1846.67,-5.5 2219.1,-62.23 2262.15,-68.79 2309.37,-81.51 2346.2,-92.73"/>
<polygon fill="black" stroke="black" stroke-width="0.5" points="2344.99,-96.01 2355.58,-95.62 2347.06,-89.33 2344.99,-96.01"/>
</a>
</g>
</g>
<!-- STOCK_PRIMO__10_HIST_USD -->
<g id="node12" class="node">
<title>STOCK_PRIMO__10_HIST_USD</title>
<g id="a_node12"><a xlink:title="STOCK_PRIMO__10_HIST_USD&#10;FRML &lt;SUM=HIST&gt; STOCK_PRIMO__10_HIST_USD = STOCK_PRIMO_IN_CURRENCY__10_HIST_USD*DOM_USD $">
<polygon fill="#63b8ff" stroke="black" points="2850.18,-416.23 2642.82,-416.23 2642.82,-380.23 2850.18,-380.23 2850.18,-416.23"/>
<g id="a_node12_8"><a xlink:title="STOCK_PRIMO__10_HIST_USD&#10;FRML &lt;SUM=HIST&gt; STOCK_PRIMO__10_HIST_USD = STOCK_PRIMO_IN_CURRENCY__10_HIST_USD*DOM_USD $">
<text xml:space="preserve" text-anchor="start" x="2648.62" y="-393.18" font-family="Times New Roman,serif" font-size="14.00" fill="blue">STOCK_PRIMO__10_HIST_USD:</text>
</a>
</g>
</a>
</g>
</g>
<!-- STOCK_PRIMO_IN_CURRENCY__10_HIST_USD&#45;&gt;STOCK_PRIMO__10_HIST_USD -->
<g id="edge16" class="edge">
<title>STOCK_PRIMO_IN_CURRENCY__10_HIST_USD&#45;&gt;STOCK_PRIMO__10_HIST_USD</title>
<g id="a_edge16"><a xlink:href="bogus" xlink:title="NA">
<path fill="none" stroke="black" stroke-width="0.5" d="M2457.52,-517.76C2518.03,-492.65 2626.16,-447.76 2691.32,-420.72"/>
<polygon fill="black" stroke="black" stroke-width="0.5" points="2692.41,-424.05 2700.31,-416.99 2689.73,-417.59 2692.41,-424.05"/>
</a>
</g>
</g>
<!-- STOCK_ULTIMO_IN_CURRENCY__10_HIST_USD -->
<g id="node21" class="node">
<title>STOCK_ULTIMO_IN_CURRENCY__10_HIST_USD</title>
<g id="a_node21"><a xlink:title="STOCK_ULTIMO_IN_CURRENCY__10_HIST_USD&#10;FRML &lt;&gt; STOCK_ULTIMO_IN_CURRENCY__10_HIST_USD = STOCK_PRIMO_IN_CURRENCY__10_HIST_USD&#45;AMORTIZING_IN_CURRENCY__10_HIST_USD $">
<polygon fill="#63b8ff" stroke="black" points="1529.87,-524.23 1212.27,-524.23 1212.27,-488.23 1529.87,-488.23 1529.87,-524.23"/>
<g id="a_node21_9"><a xlink:title="STOCK_ULTIMO_IN_CURRENCY__10_HIST_USD&#10;FRML &lt;&gt; STOCK_ULTIMO_IN_CURRENCY__10_HIST_USD = STOCK_PRIMO_IN_CURRENCY__10_HIST_USD&#45;AMORTIZING_IN_CURRENCY__10_HIST_USD $">
<text xml:space="preserve" text-anchor="start" x="1218.07" y="-501.18" font-family="Times New Roman,serif" font-size="14.00" fill="blue">STOCK_ULTIMO_IN_CURRENCY__10_HIST_USD:</text>
</a>
</g>
</a>
</g>
</g>
<!-- STOCK_PRIMO_IN_CURRENCY__10_HIST_USD&#45;&gt;STOCK_ULTIMO_IN_CURRENCY__10_HIST_USD -->
<g id="edge18" class="edge">
<title>STOCK_PRIMO_IN_CURRENCY__10_HIST_USD&#45;&gt;STOCK_ULTIMO_IN_CURRENCY__10_HIST_USD</title>
<g id="a_edge18"><a xlink:href="bogus" xlink:title="NA">
<path fill="none" stroke="black" stroke-width="0.5" d="M2298.65,-554.72C2272.61,-558.26 2244.95,-561.42 2219.1,-563.23 1930.65,-583.42 1854.78,-603.93 1568.5,-563.23 1521.38,-556.53 1469.76,-541.22 1431.27,-528.16"/>
<polygon fill="black" stroke="black" stroke-width="0.5" points="1432.59,-524.91 1421.99,-524.96 1430.31,-531.53 1432.59,-524.91"/>
</a>
</g>
</g>
<!-- INTEREST_IN_CURRENCY__10_HIST_USD -->
<g id="node26" class="node">
<title>INTEREST_IN_CURRENCY__10_HIST_USD</title>
<g id="a_node26"><a xlink:title="INTEREST_IN_CURRENCY__10_HIST_USD&#10;FRML &lt;&gt; INTEREST_IN_CURRENCY__10_HIST_USD = STOCK_PRIMO_IN_CURRENCY__10_HIST_USD*2/100 $">
<polygon fill="#63b8ff" stroke="black" points="2885.43,-554.23 2607.57,-554.23 2607.57,-518.23 2885.43,-518.23 2885.43,-554.23"/>
<g id="a_node26_10"><a xlink:title="INTEREST_IN_CURRENCY__10_HIST_USD&#10;FRML &lt;&gt; INTEREST_IN_CURRENCY__10_HIST_USD = STOCK_PRIMO_IN_CURRENCY__10_HIST_USD*2/100 $">
<text xml:space="preserve" text-anchor="start" x="2613.38" y="-531.18" font-family="Times New Roman,serif" font-size="14.00" fill="blue">INTEREST_IN_CURRENCY__10_HIST_USD:</text>
</a>
</g>
</a>
</g>
</g>
<!-- STOCK_PRIMO_IN_CURRENCY__10_HIST_USD&#45;&gt;INTEREST_IN_CURRENCY__10_HIST_USD -->
<g id="edge41" class="edge">
<title>STOCK_PRIMO_IN_CURRENCY__10_HIST_USD&#45;&gt;INTEREST_IN_CURRENCY__10_HIST_USD</title>
<g id="a_edge41"><a xlink:href="bogus" xlink:title="NA">
<path fill="none" stroke="black" stroke-width="0.5" d="M2566.61,-536.23C2576.54,-536.23 2586.54,-536.23 2596.45,-536.23"/>
<polygon fill="black" stroke="black" stroke-width="0.5" points="2596.41,-539.73 2606.41,-536.23 2596.41,-532.73 2596.41,-539.73"/>
</a>
</g>
</g>
<!-- STOCK_ULTIMO__HIST -->
<g id="node5" class="node">
<title>STOCK_ULTIMO__HIST</title>
<g id="a_node5"><a xlink:title="STOCK_ULTIMO__HIST&#10;FRML &lt;SUM=HIST&gt; STOCK_ULTIMO__HIST = (STOCK_ULTIMO__10_HIST_DOM+STOCK_ULTIMO__10_HIST_USD) $">
<polygon fill="#63b8ff" stroke="black" points="2492.83,-224.23 2331.22,-224.23 2331.22,-188.23 2492.83,-188.23 2492.83,-224.23"/>
<g id="a_node5_11"><a xlink:title="STOCK_ULTIMO__HIST&#10;FRML &lt;SUM=HIST&gt; STOCK_ULTIMO__HIST = (STOCK_ULTIMO__10_HIST_DOM+STOCK_ULTIMO__10_HIST_USD) $">
<text xml:space="preserve" text-anchor="start" x="2337.03" y="-201.18" font-family="Times New Roman,serif" font-size="14.00" fill="blue">STOCK_ULTIMO__HIST:</text>
</a>
</g>
</a>
</g>
</g>
<!-- AMORTIZING__10_HIST_DOM -->
<g id="node6" class="node">
<title>AMORTIZING__10_HIST_DOM</title>
<g id="a_node6"><a xlink:title="AMORTIZING__10_HIST_DOM&#10;FRML &lt;SUM=HIST&gt; AMORTIZING__10_HIST_DOM = AMORTIZING_IN_CURRENCY__10_HIST_DOM*DOM_DOM $">
<polygon fill="#63b8ff" stroke="black" points="1995.6,-316.23 1792,-316.23 1792,-280.23 1995.6,-280.23 1995.6,-316.23"/>
<g id="a_node6_12"><a xlink:title="AMORTIZING__10_HIST_DOM&#10;FRML &lt;SUM=HIST&gt; AMORTIZING__10_HIST_DOM = AMORTIZING_IN_CURRENCY__10_HIST_DOM*DOM_DOM $">
<text xml:space="preserve" text-anchor="start" x="1797.8" y="-293.18" font-family="Times New Roman,serif" font-size="14.00" fill="blue">AMORTIZING__10_HIST_DOM:</text>
</a>
</g>
</a>
</g>
</g>
<!-- AMORTIZING__HIST -->
<g id="node13" class="node">
<title>AMORTIZING__HIST</title>
<g id="a_node13"><a xlink:title="AMORTIZING__HIST&#10;FRML &lt;SUM=HIST&gt; AMORTIZING__HIST = (AMORTIZING__10_HIST_DOM+AMORTIZING__10_HIST_USD) $">
<polygon fill="#63b8ff" stroke="black" points="2483.83,-343.23 2340.22,-343.23 2340.22,-307.23 2483.83,-307.23 2483.83,-343.23"/>
<g id="a_node13_13"><a xlink:title="AMORTIZING__HIST&#10;FRML &lt;SUM=HIST&gt; AMORTIZING__HIST = (AMORTIZING__10_HIST_DOM+AMORTIZING__10_HIST_USD) $">
<text xml:space="preserve" text-anchor="start" x="2346.03" y="-320.18" font-family="Times New Roman,serif" font-size="14.00" fill="blue">AMORTIZING__HIST:</text>
</a>
</g>
</a>
</g>
</g>
<!-- AMORTIZING__10_HIST_DOM&#45;&gt;AMORTIZING__HIST -->
<g id="edge28" class="edge">
<title>AMORTIZING__10_HIST_DOM&#45;&gt;AMORTIZING__HIST</title>
<g id="a_edge28"><a xlink:href="bogus" xlink:title="NA">
<path fill="none" stroke="black" stroke-width="0.5" d="M1995.87,-303.52C2093.32,-308.61 2238.95,-316.23 2329.3,-320.96"/>
<polygon fill="black" stroke="black" stroke-width="0.5" points="2329.12,-324.45 2339.29,-321.48 2329.48,-317.46 2329.12,-324.45"/>
</a>
</g>
</g>
<!-- INTEREST_PAYMENTS__HIST -->
<g id="node10" class="node">
<title>INTEREST_PAYMENTS__HIST</title>
<g id="a_node10"><a xlink:title="INTEREST_PAYMENTS__HIST&#10;FRML &lt;SUM=HIST&gt; INTEREST_PAYMENTS__HIST = (INTEREST_PAYMENTS__10_HIST_DOM+INTEREST_PAYMENTS__10_HIST_USD) $">
<polygon fill="#63b8ff" stroke="black" points="3421.25,-343.23 3220.65,-343.23 3220.65,-307.23 3421.25,-307.23 3421.25,-343.23"/>
<g id="a_node10_14"><a xlink:title="INTEREST_PAYMENTS__HIST&#10;FRML &lt;SUM=HIST&gt; INTEREST_PAYMENTS__HIST = (INTEREST_PAYMENTS__10_HIST_DOM+INTEREST_PAYMENTS__10_HIST_USD) $">
<text xml:space="preserve" text-anchor="start" x="3226.45" y="-320.18" font-family="Times New Roman,serif" font-size="14.00" fill="blue">INTEREST_PAYMENTS__HIST:</text>
</a>
</g>
</a>
</g>
</g>
<!-- INTEREST_PAYMENTS__10_HIST_DOM&#45;&gt;INTEREST_PAYMENTS__HIST -->
<g id="edge25" class="edge">
<title>INTEREST_PAYMENTS__10_HIST_DOM&#45;&gt;INTEREST_PAYMENTS__HIST</title>
<g id="a_edge25"><a xlink:href="bogus" xlink:title="NA">
<path fill="none" stroke="black" stroke-width="0.5" d="M3084.93,-178.68C3133.12,-208.73 3228.52,-268.21 3281.76,-301.41"/>
<polygon fill="black" stroke="black" stroke-width="0.5" points="3279.58,-304.18 3289.92,-306.5 3283.28,-298.24 3279.58,-304.18"/>
</a>
</g>
</g>
<!-- DOM_DOM -->
<g id="node8" class="node">
<title>DOM_DOM</title>
<g id="a_node8"><a xlink:title="DOM_DOM&#10;Exogen">
<polygon fill="yellow" stroke="black" points="1414.37,-249.23 1327.77,-249.23 1327.77,-213.23 1414.37,-213.23 1414.37,-249.23"/>
<g id="a_node8_15"><a xlink:title="DOM_DOM&#10;Exogen">
<text xml:space="preserve" text-anchor="start" x="1333.57" y="-226.18" font-family="Times New Roman,serif" font-size="14.00" fill="blue">DOM_DOM:</text>
</a>
</g>
</a>
</g>
</g>
<!-- DOM_DOM&#45;&gt;AMORTIZING__10_HIST_DOM -->
<g id="edge21" class="edge">
<title>DOM_DOM&#45;&gt;AMORTIZING__10_HIST_DOM</title>
<g id="a_edge21"><a xlink:href="bogus" xlink:title="NA">
<path fill="none" stroke="black" stroke-width="0.5" d="M1414.84,-239.84C1454.53,-247.6 1515.32,-258.88 1568.5,-266.23 1638.96,-275.97 1718.43,-283.86 1781.07,-289.37"/>
<polygon fill="black" stroke="black" stroke-width="0.5" points="1780.75,-292.85 1791.01,-290.24 1781.35,-285.88 1780.75,-292.85"/>
</a>
</g>
</g>
<!-- DOM_DOM&#45;&gt;INTEREST_PAYMENTS__10_HIST_DOM -->
<g id="edge8" class="edge">
<title>DOM_DOM&#45;&gt;INTEREST_PAYMENTS__10_HIST_DOM</title>
<g id="a_edge8"><a xlink:href="bogus" xlink:title="NA">
<path fill="none" stroke="black" stroke-width="0.5" d="M1414.76,-216.67C1454.14,-204.02 1514.5,-186.61 1568.5,-179.23 1825.33,-144.14 2594.87,-152.45 2913.17,-157.63"/>
<polygon fill="black" stroke="black" stroke-width="0.5" points="2913.02,-161.13 2923.08,-157.8 2913.14,-154.13 2913.02,-161.13"/>
</a>
</g>
</g>
<!-- STOCK_ULTIMO__10_HIST_DOM -->
<g id="node19" class="node">
<title>STOCK_ULTIMO__10_HIST_DOM</title>
<g id="a_node19"><a xlink:title="STOCK_ULTIMO__10_HIST_DOM&#10;FRML &lt;SUM=HIST&gt; STOCK_ULTIMO__10_HIST_DOM = STOCK_ULTIMO_IN_CURRENCY__10_HIST_DOM*DOM_DOM $">
<polygon fill="#63b8ff" stroke="black" points="2004.6,-224.23 1783,-224.23 1783,-188.23 2004.6,-188.23 2004.6,-224.23"/>
<g id="a_node19_16"><a xlink:title="STOCK_ULTIMO__10_HIST_DOM&#10;FRML &lt;SUM=HIST&gt; STOCK_ULTIMO__10_HIST_DOM = STOCK_ULTIMO_IN_CURRENCY__10_HIST_DOM*DOM_DOM $">
<text xml:space="preserve" text-anchor="start" x="1788.8" y="-201.18" font-family="Times New Roman,serif" font-size="14.00" fill="blue">STOCK_ULTIMO__10_HIST_DOM:</text>
</a>
</g>
</a>
</g>
</g>
<!-- DOM_DOM&#45;&gt;STOCK_ULTIMO__10_HIST_DOM -->
<g id="edge38" class="edge">
<title>DOM_DOM&#45;&gt;STOCK_ULTIMO__10_HIST_DOM</title>
<g id="a_edge38"><a xlink:href="bogus" xlink:title="NA">
<path fill="none" stroke="black" stroke-width="0.5" d="M1414.69,-229.18C1491.89,-225.48 1657.48,-217.53 1771.97,-212.03"/>
<polygon fill="black" stroke="black" stroke-width="0.5" points="1771.97,-215.53 1781.79,-211.56 1771.63,-208.54 1771.97,-215.53"/>
</a>
</g>
</g>
<!-- STOCK_PRIMO__10_HIST_DOM -->
<g id="node25" class="node">
<title>STOCK_PRIMO__10_HIST_DOM</title>
<g id="a_node25"><a xlink:title="STOCK_PRIMO__10_HIST_DOM&#10;FRML &lt;SUM=HIST&gt; STOCK_PRIMO__10_HIST_DOM = STOCK_PRIMO_IN_CURRENCY__10_HIST_DOM*DOM_DOM $">
<polygon fill="#63b8ff" stroke="black" points="2852.8,-270.23 2640.2,-270.23 2640.2,-234.23 2852.8,-234.23 2852.8,-270.23"/>
<g id="a_node25_17"><a xlink:title="STOCK_PRIMO__10_HIST_DOM&#10;FRML &lt;SUM=HIST&gt; STOCK_PRIMO__10_HIST_DOM = STOCK_PRIMO_IN_CURRENCY__10_HIST_DOM*DOM_DOM $">
<text xml:space="preserve" text-anchor="start" x="2646" y="-247.18" font-family="Times New Roman,serif" font-size="14.00" fill="blue">STOCK_PRIMO__10_HIST_DOM:</text>
</a>
</g>
</a>
</g>
</g>
<!-- DOM_DOM&#45;&gt;STOCK_PRIMO__10_HIST_DOM -->
<g id="edge36" class="edge">
<title>DOM_DOM&#45;&gt;STOCK_PRIMO__10_HIST_DOM</title>
<g id="a_edge36"><a xlink:href="bogus" xlink:title="NA">
<path fill="none" stroke="black" stroke-width="0.5" d="M1414.68,-231.88C1600.12,-234.72 2340.46,-246.04 2629.27,-250.45"/>
<polygon fill="black" stroke="black" stroke-width="0.5" points="2628.96,-253.95 2639.02,-250.6 2629.07,-246.95 2628.96,-253.95"/>
</a>
</g>
</g>
<!-- STOCK_ULTIMO_IN_CURRENCY__10_HIST_DOM -->
<g id="node9" class="node">
<title>STOCK_ULTIMO_IN_CURRENCY__10_HIST_DOM</title>
<g id="a_node9"><a xlink:title="STOCK_ULTIMO_IN_CURRENCY__10_HIST_DOM&#10;FRML &lt;&gt; STOCK_ULTIMO_IN_CURRENCY__10_HIST_DOM = STOCK_PRIMO_IN_CURRENCY__10_HIST_DOM&#45;AMORTIZING_IN_CURRENCY__10_HIST_DOM $">
<polygon fill="#63b8ff" stroke="black" points="1532.5,-153.23 1209.65,-153.23 1209.65,-117.23 1532.5,-117.23 1532.5,-153.23"/>
<g id="a_node9_18"><a xlink:title="STOCK_ULTIMO_IN_CURRENCY__10_HIST_DOM&#10;FRML &lt;&gt; STOCK_ULTIMO_IN_CURRENCY__10_HIST_DOM = STOCK_PRIMO_IN_CURRENCY__10_HIST_DOM&#45;AMORTIZING_IN_CURRENCY__10_HIST_DOM $">
<text xml:space="preserve" text-anchor="start" x="1215.45" y="-130.18" font-family="Times New Roman,serif" font-size="14.00" fill="blue">STOCK_ULTIMO_IN_CURRENCY__10_HIST_DOM:</text>
</a>
</g>
</a>
</g>
</g>
<!-- STOCK_ULTIMO_IN_CURRENCY__10_HIST_DOM(&#45;1) -->
<g id="node11" class="node">
<title>STOCK_ULTIMO_IN_CURRENCY__10_HIST_DOM(&#45;1)</title>
<g id="a_node11"><a xlink:title="STOCK_ULTIMO_IN_CURRENCY__10_HIST_DOM&#10;FRML &lt;&gt; STOCK_ULTIMO_IN_CURRENCY__10_HIST_DOM = STOCK_PRIMO_IN_CURRENCY__10_HIST_DOM&#45;AMORTIZING_IN_CURRENCY__10_HIST_DOM $">
<polygon fill="springgreen" stroke="black" points="2219.1,-132.23 1568.5,-132.23 1568.5,-96.23 2219.1,-96.23 2219.1,-132.23"/>
<g id="a_node11_19"><a xlink:title="STOCK_ULTIMO_IN_CURRENCY__10_HIST_DOM&#10;FRML &lt;&gt; STOCK_ULTIMO_IN_CURRENCY__10_HIST_DOM = STOCK_PRIMO_IN_CURRENCY__10_HIST_DOM&#45;AMORTIZING_IN_CURRENCY__10_HIST_DOM $">
<text xml:space="preserve" text-anchor="start" x="1574.3" y="-109.18" font-family="Times New Roman,serif" font-size="14.00" fill="blue">STOCK_ULTIMO_IN_CURRENCY__10_HIST_DOM(&#45;1):STOCK_ULTIMO_IN_CURRENCY__10_HIST_DOM</text>
</a>
</g>
</a>
</g>
</g>
<!-- STOCK_ULTIMO_IN_CURRENCY__10_HIST_DOM&#45;&gt;STOCK_ULTIMO_IN_CURRENCY__10_HIST_DOM(&#45;1) -->
<g id="edge24" class="edge">
<title>STOCK_ULTIMO_IN_CURRENCY__10_HIST_DOM&#45;&gt;STOCK_ULTIMO_IN_CURRENCY__10_HIST_DOM(&#45;1)</title>
<g id="a_edge24"><a xlink:href="bogus" xlink:title="NA">
<path fill="none" stroke="black" stroke-width="0.5" d="M1532.91,-128.74C1541,-128.42 1549.24,-128.08 1557.59,-127.75"/>
<polygon fill="black" stroke="black" stroke-width="0.5" points="1557.62,-131.25 1567.47,-127.35 1557.34,-124.26 1557.62,-131.25"/>
</a>
</g>
</g>
<!-- STOCK_ULTIMO_IN_CURRENCY__10_HIST_DOM&#45;&gt;STOCK_ULTIMO__10_HIST_DOM -->
<g id="edge11" class="edge">
<title>STOCK_ULTIMO_IN_CURRENCY__10_HIST_DOM&#45;&gt;STOCK_ULTIMO__10_HIST_DOM</title>
<g id="a_edge11"><a xlink:href="bogus" xlink:title="NA">
<path fill="none" stroke="black" stroke-width="0.5" d="M1507.53,-153.7C1589.43,-164.87 1692.95,-178.98 1772.05,-189.77"/>
<polygon fill="black" stroke="black" stroke-width="0.5" points="1771.43,-193.21 1781.81,-191.1 1772.37,-186.28 1771.43,-193.21"/>
</a>
</g>
</g>
<!-- STOCK_ULTIMO_IN_CURRENCY__10_HIST_DOM(&#45;1)&#45;&gt;STOCK_PRIMO_IN_CURRENCY__10_HIST_DOM -->
<g id="edge4" class="edge">
<title>STOCK_ULTIMO_IN_CURRENCY__10_HIST_DOM(&#45;1)&#45;&gt;STOCK_PRIMO_IN_CURRENCY__10_HIST_DOM</title>
<g id="a_edge4"><a xlink:href="bogus" xlink:title="NA">
<path fill="none" stroke="black" stroke-width="0.5" d="M2219.54,-114.23C2227.89,-114.23 2236.15,-114.23 2244.26,-114.23"/>
<polygon fill="black" stroke="black" stroke-width="0.5" points="2244.09,-117.73 2254.09,-114.23 2244.09,-110.73 2244.09,-117.73"/>
</a>
</g>
</g>
<!-- STOCK_PRIMO__10_HIST_USD&#45;&gt;STOCK_PRIMO__HIST -->
<g id="edge27" class="edge">
<title>STOCK_PRIMO__10_HIST_USD&#45;&gt;STOCK_PRIMO__HIST</title>
<g id="a_edge27"><a xlink:href="bogus" xlink:title="NA">
<path fill="none" stroke="black" stroke-width="0.5" d="M2824.68,-379.81C2868.19,-369.42 2922.63,-356.43 2967.49,-345.72"/>
<polygon fill="black" stroke="black" stroke-width="0.5" points="2968.13,-349.17 2977.05,-343.44 2966.51,-342.36 2968.13,-349.17"/>
</a>
</g>
</g>
<!-- AMORTIZING_SHARE_PR_TIME__10_HIST_USD -->
<g id="node14" class="node">
<title>AMORTIZING_SHARE_PR_TIME__10_HIST_USD</title>
<g id="a_node14"><a xlink:title="AMORTIZING_SHARE_PR_TIME__10_HIST_USD&#10;FRML &lt;&gt; AMORTIZING_SHARE_PR_TIME__10_HIST_USD = LOGICAL_AMORTIZING_YEARS__10_HIST_USD/(10&#45;0) $">
<polygon fill="#63b8ff" stroke="black" points="830.17,-370.23 517.08,-370.23 517.08,-334.23 830.17,-334.23 830.17,-370.23"/>
<g id="a_node14_20"><a xlink:title="AMORTIZING_SHARE_PR_TIME__10_HIST_USD&#10;FRML &lt;&gt; AMORTIZING_SHARE_PR_TIME__10_HIST_USD = LOGICAL_AMORTIZING_YEARS__10_HIST_USD/(10&#45;0) $">
<text xml:space="preserve" text-anchor="start" x="522.88" y="-347.18" font-family="Times New Roman,serif" font-size="14.00" fill="blue">AMORTIZING_SHARE_PR_TIME__10_HIST_USD:</text>
</a>
</g>
</a>
</g>
</g>
<!-- AMORTIZING_IN_CURRENCY__10_HIST_USD -->
<g id="node27" class="node">
<title>AMORTIZING_IN_CURRENCY__10_HIST_USD</title>
<g id="a_node27"><a xlink:title="AMORTIZING_IN_CURRENCY__10_HIST_USD&#10;FRML &lt;&gt; AMORTIZING_IN_CURRENCY__10_HIST_USD = &#45;20*AMORTIZING_SHARE_PR_TIME__10_HIST_USD $">
<polygon fill="#63b8ff" stroke="black" points="1171.02,-370.23 871.42,-370.23 871.42,-334.23 1171.02,-334.23 1171.02,-370.23"/>
<g id="a_node27_21"><a xlink:title="AMORTIZING_IN_CURRENCY__10_HIST_USD&#10;FRML &lt;&gt; AMORTIZING_IN_CURRENCY__10_HIST_USD = &#45;20*AMORTIZING_SHARE_PR_TIME__10_HIST_USD $">
<text xml:space="preserve" text-anchor="start" x="877.22" y="-347.18" font-family="Times New Roman,serif" font-size="14.00" fill="blue">AMORTIZING_IN_CURRENCY__10_HIST_USD:</text>
</a>
</g>
</a>
</g>
</g>
<!-- AMORTIZING_SHARE_PR_TIME__10_HIST_USD&#45;&gt;AMORTIZING_IN_CURRENCY__10_HIST_USD -->
<g id="edge33" class="edge">
<title>AMORTIZING_SHARE_PR_TIME__10_HIST_USD&#45;&gt;AMORTIZING_IN_CURRENCY__10_HIST_USD</title>
<g id="a_edge33"><a xlink:href="bogus" xlink:title="NA">
<path fill="none" stroke="black" stroke-width="0.5" d="M830.49,-352.23C840.52,-352.23 850.63,-352.23 860.68,-352.23"/>
<polygon fill="black" stroke="black" stroke-width="0.5" points="860.37,-355.73 870.36,-352.23 860.36,-348.73 860.37,-355.73"/>
</a>
</g>
</g>
<!-- LOGICAL_AMORTIZING_YEARS__10_HIST_USD&#45;&gt;AMORTIZING_SHARE_PR_TIME__10_HIST_USD -->
<g id="edge42" class="edge">
<title>LOGICAL_AMORTIZING_YEARS__10_HIST_USD&#45;&gt;AMORTIZING_SHARE_PR_TIME__10_HIST_USD</title>
<g id="a_edge42"><a xlink:href="bogus" xlink:title="NA">
<path fill="none" stroke="black" stroke-width="0.5" d="M476.25,-352.23C486.13,-352.23 496.1,-352.23 506.03,-352.23"/>
<polygon fill="black" stroke="black" stroke-width="0.5" points="506.02,-355.73 516.02,-352.23 506.02,-348.73 506.02,-355.73"/>
</a>
</g>
</g>
<!-- AMORTIZING__10_HIST_USD -->
<g id="node16" class="node">
<title>AMORTIZING__10_HIST_USD</title>
<g id="a_node16"><a xlink:title="AMORTIZING__10_HIST_USD&#10;FRML &lt;SUM=HIST&gt; AMORTIZING__10_HIST_USD = AMORTIZING_IN_CURRENCY__10_HIST_USD*DOM_USD $">
<polygon fill="#63b8ff" stroke="black" points="1992.97,-370.23 1794.62,-370.23 1794.62,-334.23 1992.97,-334.23 1992.97,-370.23"/>
<g id="a_node16_22"><a xlink:title="AMORTIZING__10_HIST_USD&#10;FRML &lt;SUM=HIST&gt; AMORTIZING__10_HIST_USD = AMORTIZING_IN_CURRENCY__10_HIST_USD*DOM_USD $">
<text xml:space="preserve" text-anchor="start" x="1800.42" y="-347.18" font-family="Times New Roman,serif" font-size="14.00" fill="blue">AMORTIZING__10_HIST_USD:</text>
</a>
</g>
</a>
</g>
</g>
<!-- AMORTIZING__10_HIST_USD&#45;&gt;AMORTIZING__HIST -->
<g id="edge35" class="edge">
<title>AMORTIZING__10_HIST_USD&#45;&gt;AMORTIZING__HIST</title>
<g id="a_edge35"><a xlink:href="bogus" xlink:title="NA">
<path fill="none" stroke="black" stroke-width="0.5" d="M1993.42,-347.07C2090.82,-341.98 2238.05,-334.28 2329.17,-329.51"/>
<polygon fill="black" stroke="black" stroke-width="0.5" points="2329.17,-333.02 2338.97,-329 2328.8,-326.03 2329.17,-333.02"/>
</a>
</g>
</g>
<!-- DOM_USD -->
<g id="node17" class="node">
<title>DOM_USD</title>
<g id="a_node17"><a xlink:title="DOM_USD&#10;Exogen">
<polygon fill="yellow" stroke="black" points="1411.75,-439.23 1330.4,-439.23 1330.4,-403.23 1411.75,-403.23 1411.75,-439.23"/>
<g id="a_node17_23"><a xlink:title="DOM_USD&#10;Exogen">
<text xml:space="preserve" text-anchor="start" x="1336.2" y="-416.18" font-family="Times New Roman,serif" font-size="14.00" fill="blue">DOM_USD:</text>
</a>
</g>
</a>
</g>
</g>
<!-- DOM_USD&#45;&gt;STOCK_PRIMO__10_HIST_USD -->
<g id="edge13" class="edge">
<title>DOM_USD&#45;&gt;STOCK_PRIMO__10_HIST_USD</title>
<g id="a_edge13"><a xlink:href="bogus" xlink:title="NA">
<path fill="none" stroke="black" stroke-width="0.5" d="M1411.95,-420.37C1451.64,-419.52 1514.28,-418.22 1568.5,-417.23 1958.63,-410.11 2421.53,-403.04 2631.65,-399.91"/>
<polygon fill="black" stroke="black" stroke-width="0.5" points="2631.67,-403.41 2641.62,-399.76 2631.57,-396.41 2631.67,-403.41"/>
</a>
</g>
</g>
<!-- DOM_USD&#45;&gt;AMORTIZING__10_HIST_USD -->
<g id="edge10" class="edge">
<title>DOM_USD&#45;&gt;AMORTIZING__10_HIST_USD</title>
<g id="a_edge10"><a xlink:href="bogus" xlink:title="NA">
<path fill="none" stroke="black" stroke-width="0.5" d="M1412.16,-412.61C1451.73,-404.35 1514.05,-392.03 1568.5,-384.23 1639.99,-373.99 1720.81,-366.01 1783.89,-360.57"/>
<polygon fill="black" stroke="black" stroke-width="0.5" points="1783.83,-364.09 1793.5,-359.75 1783.24,-357.12 1783.83,-364.09"/>
</a>
</g>
</g>
<!-- INTEREST_PAYMENTS__10_HIST_USD -->
<g id="node22" class="node">
<title>INTEREST_PAYMENTS__10_HIST_USD</title>
<g id="a_node22"><a xlink:title="INTEREST_PAYMENTS__10_HIST_USD&#10;FRML &lt;SUM=HIST&gt; INTEREST_PAYMENTS__10_HIST_USD = INTEREST_IN_CURRENCY__10_HIST_USD*DOM_USD $">
<polygon fill="#63b8ff" stroke="black" points="3182.03,-508.23 2926.67,-508.23 2926.67,-472.23 3182.03,-472.23 3182.03,-508.23"/>
<g id="a_node22_24"><a xlink:title="INTEREST_PAYMENTS__10_HIST_USD&#10;FRML &lt;SUM=HIST&gt; INTEREST_PAYMENTS__10_HIST_USD = INTEREST_IN_CURRENCY__10_HIST_USD*DOM_USD $">
<text xml:space="preserve" text-anchor="start" x="2932.47" y="-485.18" font-family="Times New Roman,serif" font-size="14.00" fill="blue">INTEREST_PAYMENTS__10_HIST_USD:</text>
</a>
</g>
</a>
</g>
</g>
<!-- DOM_USD&#45;&gt;INTEREST_PAYMENTS__10_HIST_USD -->
<g id="edge29" class="edge">
<title>DOM_USD&#45;&gt;INTEREST_PAYMENTS__10_HIST_USD</title>
<g id="a_edge29"><a xlink:href="bogus" xlink:title="NA">
<path fill="none" stroke="black" stroke-width="0.5" d="M1412.16,-434.41C1451.47,-446.62 1513.38,-463.97 1568.5,-471.23 1826.2,-505.19 2599.2,-497.44 2915.82,-492.62"/>
<polygon fill="black" stroke="black" stroke-width="0.5" points="2915.73,-496.12 2925.67,-492.46 2915.62,-489.12 2915.73,-496.12"/>
</a>
</g>
</g>
<!-- STOCK_ULTIMO__10_HIST_USD -->
<g id="node24" class="node">
<title>STOCK_ULTIMO__10_HIST_USD</title>
<g id="a_node24"><a xlink:title="STOCK_ULTIMO__10_HIST_USD&#10;FRML &lt;SUM=HIST&gt; STOCK_ULTIMO__10_HIST_USD = STOCK_ULTIMO_IN_CURRENCY__10_HIST_USD*DOM_USD $">
<polygon fill="#63b8ff" stroke="black" points="2001.97,-462.23 1785.62,-462.23 1785.62,-426.23 2001.97,-426.23 2001.97,-462.23"/>
<g id="a_node24_25"><a xlink:title="STOCK_ULTIMO__10_HIST_USD&#10;FRML &lt;SUM=HIST&gt; STOCK_ULTIMO__10_HIST_USD = STOCK_ULTIMO_IN_CURRENCY__10_HIST_USD*DOM_USD $">
<text xml:space="preserve" text-anchor="start" x="1791.42" y="-439.18" font-family="Times New Roman,serif" font-size="14.00" fill="blue">STOCK_ULTIMO__10_HIST_USD:</text>
</a>
</g>
</a>
</g>
</g>
<!-- DOM_USD&#45;&gt;STOCK_ULTIMO__10_HIST_USD -->
<g id="edge17" class="edge">
<title>DOM_USD&#45;&gt;STOCK_ULTIMO__10_HIST_USD</title>
<g id="a_edge17"><a xlink:href="bogus" xlink:title="NA">
<path fill="none" stroke="black" stroke-width="0.5" d="M1412.07,-423C1488.69,-426.38 1658.81,-433.89 1774.69,-439.01"/>
<polygon fill="black" stroke="black" stroke-width="0.5" points="1774.48,-442.51 1784.63,-439.45 1774.79,-435.51 1774.48,-442.51"/>
</a>
</g>
</g>
<!-- STOCK_ULTIMO_IN_CURRENCY__10_HIST_USD(&#45;1) -->
<g id="node18" class="node">
<title>STOCK_ULTIMO_IN_CURRENCY__10_HIST_USD(&#45;1)</title>
<g id="a_node18"><a xlink:title="STOCK_ULTIMO_IN_CURRENCY__10_HIST_USD&#10;FRML &lt;&gt; STOCK_ULTIMO_IN_CURRENCY__10_HIST_USD = STOCK_PRIMO_IN_CURRENCY__10_HIST_USD&#45;AMORTIZING_IN_CURRENCY__10_HIST_USD $">
<polygon fill="springgreen" stroke="black" points="2213.85,-554.23 1573.75,-554.23 1573.75,-518.23 2213.85,-518.23 2213.85,-554.23"/>
<g id="a_node18_26"><a xlink:title="STOCK_ULTIMO_IN_CURRENCY__10_HIST_USD&#10;FRML &lt;&gt; STOCK_ULTIMO_IN_CURRENCY__10_HIST_USD = STOCK_PRIMO_IN_CURRENCY__10_HIST_USD&#45;AMORTIZING_IN_CURRENCY__10_HIST_USD $">
<text xml:space="preserve" text-anchor="start" x="1579.55" y="-531.18" font-family="Times New Roman,serif" font-size="14.00" fill="blue">STOCK_ULTIMO_IN_CURRENCY__10_HIST_USD(&#45;1):STOCK_ULTIMO_IN_CURRENCY__10_HIST_USD</text>
</a>
</g>
</a>
</g>
</g>
<!-- STOCK_ULTIMO_IN_CURRENCY__10_HIST_USD(&#45;1)&#45;&gt;STOCK_PRIMO_IN_CURRENCY__10_HIST_USD -->
<g id="edge22" class="edge">
<title>STOCK_ULTIMO_IN_CURRENCY__10_HIST_USD(&#45;1)&#45;&gt;STOCK_PRIMO_IN_CURRENCY__10_HIST_USD</title>
<g id="a_edge22"><a xlink:href="bogus" xlink:title="NA">
<path fill="none" stroke="black" stroke-width="0.5" d="M2214.02,-536.23C2225.1,-536.23 2236.02,-536.23 2246.69,-536.23"/>
<polygon fill="black" stroke="black" stroke-width="0.5" points="2246.52,-539.73 2256.52,-536.23 2246.52,-532.73 2246.52,-539.73"/>
</a>
</g>
</g>
<!-- STOCK_ULTIMO__10_HIST_DOM&#45;&gt;STOCK_ULTIMO__HIST -->
<g id="edge12" class="edge">
<title>STOCK_ULTIMO__10_HIST_DOM&#45;&gt;STOCK_ULTIMO__HIST</title>
<g id="a_edge12"><a xlink:href="bogus" xlink:title="NA">
<path fill="none" stroke="black" stroke-width="0.5" d="M2004.91,-206.23C2098.95,-206.23 2232.59,-206.23 2320.51,-206.23"/>
<polygon fill="black" stroke="black" stroke-width="0.5" points="2320.24,-209.73 2330.24,-206.23 2320.24,-202.73 2320.24,-209.73"/>
</a>
</g>
</g>
<!-- AMORTIZING_IN_CURRENCY__10_HIST_DOM -->
<g id="node20" class="node">
<title>AMORTIZING_IN_CURRENCY__10_HIST_DOM</title>
<g id="a_node20"><a xlink:title="AMORTIZING_IN_CURRENCY__10_HIST_DOM&#10;FRML &lt;&gt; AMORTIZING_IN_CURRENCY__10_HIST_DOM = 1000*AMORTIZING_SHARE_PR_TIME__10_HIST_DOM $">
<polygon fill="#63b8ff" stroke="black" points="1173.65,-316.23 868.8,-316.23 868.8,-280.23 1173.65,-280.23 1173.65,-316.23"/>
<g id="a_node20_27"><a xlink:title="AMORTIZING_IN_CURRENCY__10_HIST_DOM&#10;FRML &lt;&gt; AMORTIZING_IN_CURRENCY__10_HIST_DOM = 1000*AMORTIZING_SHARE_PR_TIME__10_HIST_DOM $">
<text xml:space="preserve" text-anchor="start" x="874.6" y="-293.18" font-family="Times New Roman,serif" font-size="14.00" fill="blue">AMORTIZING_IN_CURRENCY__10_HIST_DOM:</text>
</a>
</g>
</a>
</g>
</g>
<!-- AMORTIZING_IN_CURRENCY__10_HIST_DOM&#45;&gt;AMORTIZING__10_HIST_DOM -->
<g id="edge7" class="edge">
<title>AMORTIZING_IN_CURRENCY__10_HIST_DOM&#45;&gt;AMORTIZING__10_HIST_DOM</title>
<g id="a_edge7"><a xlink:href="bogus" xlink:title="NA">
<path fill="none" stroke="black" stroke-width="0.5" d="M1173.87,-298.23C1347.21,-298.23 1626.85,-298.23 1781.32,-298.23"/>
<polygon fill="black" stroke="black" stroke-width="0.5" points="1781.01,-301.73 1791.01,-298.23 1781.01,-294.73 1781.01,-301.73"/>
</a>
</g>
</g>
<!-- AMORTIZING_IN_CURRENCY__10_HIST_DOM&#45;&gt;STOCK_ULTIMO_IN_CURRENCY__10_HIST_DOM -->
<g id="edge6" class="edge">
<title>AMORTIZING_IN_CURRENCY__10_HIST_DOM&#45;&gt;STOCK_ULTIMO_IN_CURRENCY__10_HIST_DOM</title>
<g id="a_edge6"><a xlink:href="bogus" xlink:title="NA">
<path fill="none" stroke="black" stroke-width="0.5" d="M1057.5,-279.76C1094.96,-260.33 1156.02,-229.19 1209.65,-204.23 1244.5,-188.01 1284.18,-170.94 1315.35,-157.83"/>
<polygon fill="black" stroke="black" stroke-width="0.5" points="1316.59,-161.1 1324.46,-154.01 1313.89,-154.65 1316.59,-161.1"/>
</a>
</g>
</g>
<!-- STOCK_ULTIMO_IN_CURRENCY__10_HIST_USD&#45;&gt;STOCK_ULTIMO_IN_CURRENCY__10_HIST_USD(&#45;1) -->
<g id="edge19" class="edge">
<title>STOCK_ULTIMO_IN_CURRENCY__10_HIST_USD&#45;&gt;STOCK_ULTIMO_IN_CURRENCY__10_HIST_USD(&#45;1)</title>
<g id="a_edge19"><a xlink:href="bogus" xlink:title="NA">
<path fill="none" stroke="black" stroke-width="0.5" d="M1530.08,-515.33C1540.74,-515.95 1551.67,-516.58 1562.78,-517.22"/>
<polygon fill="black" stroke="black" stroke-width="0.5" points="1562.55,-520.71 1572.74,-517.79 1562.95,-513.72 1562.55,-520.71"/>
</a>
</g>
</g>
<!-- STOCK_ULTIMO_IN_CURRENCY__10_HIST_USD&#45;&gt;STOCK_ULTIMO__10_HIST_USD -->
<g id="edge30" class="edge">
<title>STOCK_ULTIMO_IN_CURRENCY__10_HIST_USD&#45;&gt;STOCK_ULTIMO__10_HIST_USD</title>
<g id="a_edge30"><a xlink:href="bogus" xlink:title="NA">
<path fill="none" stroke="black" stroke-width="0.5" d="M1527.25,-487.75C1606.53,-478.31 1701.45,-467.01 1774.7,-458.29"/>
<polygon fill="black" stroke="black" stroke-width="0.5" points="1775.07,-461.77 1784.59,-457.11 1774.25,-454.82 1775.07,-461.77"/>
</a>
</g>
</g>
<!-- INTEREST_PAYMENTS__10_HIST_USD&#45;&gt;INTEREST_PAYMENTS__HIST -->
<g id="edge23" class="edge">
<title>INTEREST_PAYMENTS__10_HIST_USD&#45;&gt;INTEREST_PAYMENTS__HIST</title>
<g id="a_edge23"><a xlink:href="bogus" xlink:title="NA">
<path fill="none" stroke="black" stroke-width="0.5" d="M3084.93,-471.78C3133.12,-441.73 3228.52,-382.24 3281.76,-349.05"/>
<polygon fill="black" stroke="black" stroke-width="0.5" points="3283.28,-352.22 3289.92,-343.96 3279.58,-346.28 3283.28,-352.22"/>
</a>
</g>
</g>
<!-- AMORTIZING_SHARE_PR_TIME__10_HIST_DOM -->
<g id="node23" class="node">
<title>AMORTIZING_SHARE_PR_TIME__10_HIST_DOM</title>
<g id="a_node23"><a xlink:title="AMORTIZING_SHARE_PR_TIME__10_HIST_DOM&#10;FRML &lt;&gt; AMORTIZING_SHARE_PR_TIME__10_HIST_DOM = LOGICAL_AMORTIZING_YEARS__10_HIST_DOM/(10&#45;0) $">
<polygon fill="#63b8ff" stroke="black" points="832.8,-316.23 514.45,-316.23 514.45,-280.23 832.8,-280.23 832.8,-316.23"/>
<g id="a_node23_28"><a xlink:title="AMORTIZING_SHARE_PR_TIME__10_HIST_DOM&#10;FRML &lt;&gt; AMORTIZING_SHARE_PR_TIME__10_HIST_DOM = LOGICAL_AMORTIZING_YEARS__10_HIST_DOM/(10&#45;0) $">
<text xml:space="preserve" text-anchor="start" x="520.25" y="-293.18" font-family="Times New Roman,serif" font-size="14.00" fill="blue">AMORTIZING_SHARE_PR_TIME__10_HIST_DOM:</text>
</a>
</g>
</a>
</g>
</g>
<!-- AMORTIZING_SHARE_PR_TIME__10_HIST_DOM&#45;&gt;AMORTIZING_IN_CURRENCY__10_HIST_DOM -->
<g id="edge26" class="edge">
<title>AMORTIZING_SHARE_PR_TIME__10_HIST_DOM&#45;&gt;AMORTIZING_IN_CURRENCY__10_HIST_DOM</title>
<g id="a_edge26"><a xlink:href="bogus" xlink:title="NA">
<path fill="none" stroke="black" stroke-width="0.5" d="M833.26,-298.23C841.41,-298.23 849.59,-298.23 857.75,-298.23"/>
<polygon fill="black" stroke="black" stroke-width="0.5" points="857.69,-301.73 867.69,-298.23 857.69,-294.73 857.69,-301.73"/>
</a>
</g>
</g>
<!-- STOCK_ULTIMO__10_HIST_USD&#45;&gt;STOCK_ULTIMO__HIST -->
<g id="edge34" class="edge">
<title>STOCK_ULTIMO__10_HIST_USD&#45;&gt;STOCK_ULTIMO__HIST</title>
<g id="a_edge34"><a xlink:href="bogus" xlink:title="NA">
<path fill="none" stroke="black" stroke-width="0.5" d="M2002.35,-446.91C2071.07,-443.22 2158.37,-427.86 2219.1,-379.23 2249.85,-354.61 2228.89,-327.64 2255.1,-298.23 2282.22,-267.8 2321.89,-244.59 2354.42,-229.09"/>
<polygon fill="black" stroke="black" stroke-width="0.5" points="2355.54,-232.43 2363.14,-225.05 2352.6,-226.08 2355.54,-232.43"/>
</a>
</g>
</g>
<!-- STOCK_PRIMO__10_HIST_DOM&#45;&gt;STOCK_PRIMO__HIST -->
<g id="edge3" class="edge">
<title>STOCK_PRIMO__10_HIST_DOM&#45;&gt;STOCK_PRIMO__HIST</title>
<g id="a_edge3"><a xlink:href="bogus" xlink:title="NA">
<path fill="none" stroke="black" stroke-width="0.5" d="M2824.68,-270.65C2868.19,-281.03 2922.63,-294.03 2967.49,-304.74"/>
<polygon fill="black" stroke="black" stroke-width="0.5" points="2966.51,-308.1 2977.05,-307.02 2968.13,-301.29 2966.51,-308.1"/>
</a>
</g>
</g>
<!-- INTEREST_IN_CURRENCY__10_HIST_USD&#45;&gt;INTEREST_PAYMENTS__10_HIST_USD -->
<g id="edge40" class="edge">
<title>INTEREST_IN_CURRENCY__10_HIST_USD&#45;&gt;INTEREST_PAYMENTS__10_HIST_USD</title>
<g id="a_edge40"><a xlink:href="bogus" xlink:title="NA">
<path fill="none" stroke="black" stroke-width="0.5" d="M2870.14,-517.78C2886.65,-515.3 2903.66,-512.74 2920.34,-510.23"/>
<polygon fill="black" stroke="black" stroke-width="0.5" points="2920.57,-513.74 2929.94,-508.79 2919.53,-506.82 2920.57,-513.74"/>
</a>
</g>
</g>
<!-- AMORTIZING_IN_CURRENCY__10_HIST_USD&#45;&gt;AMORTIZING__10_HIST_USD -->
<g id="edge5" class="edge">
<title>AMORTIZING_IN_CURRENCY__10_HIST_USD&#45;&gt;AMORTIZING__10_HIST_USD</title>
<g id="a_edge5"><a xlink:href="bogus" xlink:title="NA">
<path fill="none" stroke="black" stroke-width="0.5" d="M1171.39,-352.23C1345.47,-352.23 1629.16,-352.23 1783.82,-352.23"/>
<polygon fill="black" stroke="black" stroke-width="0.5" points="1783.52,-355.73 1793.52,-352.23 1783.52,-348.73 1783.52,-355.73"/>
</a>
</g>
</g>
<!-- AMORTIZING_IN_CURRENCY__10_HIST_USD&#45;&gt;STOCK_ULTIMO_IN_CURRENCY__10_HIST_USD -->
<g id="edge9" class="edge">
<title>AMORTIZING_IN_CURRENCY__10_HIST_USD&#45;&gt;STOCK_ULTIMO_IN_CURRENCY__10_HIST_USD</title>
<g id="a_edge9"><a xlink:href="bogus" xlink:title="NA">
<path fill="none" stroke="black" stroke-width="0.5" d="M1055.13,-370.69C1092.09,-391.05 1154.16,-424.1 1209.65,-448.23 1240.02,-461.43 1274.46,-474.17 1303.63,-484.32"/>
<polygon fill="black" stroke="black" stroke-width="0.5" points="1302.4,-487.6 1313,-487.56 1304.69,-480.99 1302.4,-487.6"/>
</a>
</g>
</g>
<!-- LOGICAL_AMORTIZING_YEARS__10_HIST_DOM&#45;&gt;AMORTIZING_SHARE_PR_TIME__10_HIST_DOM -->
<g id="edge15" class="edge">
<title>LOGICAL_AMORTIZING_YEARS__10_HIST_DOM&#45;&gt;AMORTIZING_SHARE_PR_TIME__10_HIST_DOM</title>
<g id="a_edge15"><a xlink:href="bogus" xlink:title="NA">
<path fill="none" stroke="black" stroke-width="0.5" d="M478.82,-298.23C486.97,-298.23 495.16,-298.23 503.33,-298.23"/>
<polygon fill="black" stroke="black" stroke-width="0.5" points="503.29,-301.73 513.29,-298.23 503.29,-294.73 503.29,-301.73"/>
</a>
</g>
</g>
<!-- STOCK_PRIMO_IN_CURRENCY__10_HIST_DOM&#45;&gt;INTEREST_IN_CURRENCY__10_HIST_DOM -->
<g id="edge39" class="edge">
<title>STOCK_PRIMO_IN_CURRENCY__10_HIST_DOM&#45;&gt;INTEREST_IN_CURRENCY__10_HIST_DOM</title>
<g id="a_edge39"><a xlink:href="bogus" xlink:title="NA">
<path fill="none" stroke="black" stroke-width="0.5" d="M2569.04,-114.23C2577.4,-114.23 2585.8,-114.23 2594.15,-114.23"/>
<polygon fill="black" stroke="black" stroke-width="0.5" points="2593.93,-117.73 2603.93,-114.23 2593.93,-110.73 2593.93,-117.73"/>
</a>
</g>
</g>
<!-- STOCK_PRIMO_IN_CURRENCY__10_HIST_DOM&#45;&gt;STOCK_ULTIMO_IN_CURRENCY__10_HIST_DOM -->
<g id="edge1" class="edge">
<title>STOCK_PRIMO_IN_CURRENCY__10_HIST_DOM&#45;&gt;STOCK_ULTIMO_IN_CURRENCY__10_HIST_DOM</title>
<g id="a_edge1"><a xlink:href="bogus" xlink:title="NA">
<path fill="none" stroke="black" stroke-width="0.5" d="M2298.65,-95.74C2272.61,-92.2 2244.95,-89.04 2219.1,-87.23 1930.65,-67.04 1855.58,-52.66 1568.5,-87.23 1525.81,-92.37 1479.01,-103.58 1441.8,-113.87"/>
<polygon fill="black" stroke="black" stroke-width="0.5" points="1440.98,-110.47 1432.29,-116.54 1442.87,-117.21 1440.98,-110.47"/>
</a>
</g>
</g>
<!-- STOCK_PRIMO_IN_CURRENCY__10_HIST_DOM&#45;&gt;STOCK_PRIMO__10_HIST_DOM -->
<g id="edge14" class="edge">
<title>STOCK_PRIMO_IN_CURRENCY__10_HIST_DOM&#45;&gt;STOCK_PRIMO__10_HIST_DOM</title>
<g id="a_edge14"><a xlink:href="bogus" xlink:title="NA">
<path fill="none" stroke="black" stroke-width="0.5" d="M2457.52,-132.7C2518.03,-157.81 2626.16,-202.7 2691.32,-229.74"/>
<polygon fill="black" stroke="black" stroke-width="0.5" points="2689.73,-232.87 2700.31,-233.47 2692.41,-226.4 2689.73,-232.87"/>
</a>
</g>
</g>
</g>
</svg>
