<?xml version="1.0" encoding="UTF-8" standalone="no"?>
<!DOCTYPE svg PUBLIC "-//W3C//DTD SVG 1.1//EN"
 "http://www.w3.org/Graphics/SVG/1.1/DTD/svg11.dtd">
<!-- Generated by graphviz version 14.1.0 (0)
 -->
<!-- Title: TD Pages: 1 -->
<svg width="432pt" height="75pt"
 viewBox="0.00 0.00 432.00 75.00" xmlns="http://www.w3.org/2000/svg" xmlns:xlink="http://www.w3.org/1999/xlink">
<g id="graph0" class="graph" transform="scale(0.125837 0.125837) rotate(0) translate(4 590.23)">
<title>TD</title>
<polygon fill="white" stroke="none" points="-4,4 -4,-590.23 3429,-590.23 3429,4 -4,4"/>
<text xml:space="preserve" text-anchor="middle" x="1712.5" y="-7.2" font-family="Times New Roman,serif" font-size="14.00">A_model_graph</text>
<!-- AMORTIZING__10_HIST_USD -->
<g id="node1" class="node">
<title>AMORTIZING__10_HIST_USD</title>
<g id="a_node1"><a xlink:title="AMORTIZING__10_HIST_USD&#10;FRML &lt;SUM=HIST&gt; AMORTIZING__10_HIST_USD = AMORTIZING_IN_CURRENCY__10_HIST_USD*DOM_USD $">
<polygon fill="#63b8ff" stroke="black" points="1996.72,-222.5 1798.38,-222.5 1798.38,-186.5 1996.72,-186.5 1996.72,-222.5"/>
<g id="a_node1_0"><a xlink:title="AMORTIZING__10_HIST_USD&#10;FRML &lt;SUM=HIST&gt; AMORTIZING__10_HIST_USD = AMORTIZING_IN_CURRENCY__10_HIST_USD*DOM_USD $">
<text xml:space="preserve" text-anchor="start" x="1804.17" y="-199.45" font-family="Times New Roman,serif" font-size="14.00" fill="blue">AMORTIZING__10_HIST_USD:</text>
</a>
</g>
</a>
</g>
</g>
<!-- AMORTIZING__HIST -->
<g id="node26" class="node">
<title>AMORTIZING__HIST</title>
<g id="a_node26"><a xlink:title="AMORTIZING__HIST&#10;FRML &lt;SUM=HIST&gt; AMORTIZING__HIST = (AMORTIZING__10_HIST_DOM+AMORTIZING__10_HIST_USD) $">
<polygon fill="#63b8ff" stroke="black" points="2487.58,-263.5 2343.97,-263.5 2343.97,-227.5 2487.58,-227.5 2487.58,-263.5"/>
<g id="a_node26_1"><a xlink:title="AMORTIZING__HIST&#10;FRML &lt;SUM=HIST&gt; AMORTIZING__HIST = (AMORTIZING__10_HIST_DOM+AMORTIZING__10_HIST_USD) $">
<text xml:space="preserve" text-anchor="start" x="2349.78" y="-240.45" font-family="Times New Roman,serif" font-size="14.00" fill="blue">AMORTIZING__HIST:</text>
</a>
</g>
</a>
</g>
</g>
<!-- AMORTIZING__10_HIST_USD&#45;&gt;AMORTIZING__HIST -->
<g id="edge40" class="edge">
<title>AMORTIZING__10_HIST_USD&#45;&gt;AMORTIZING__HIST</title>
<g id="a_edge40"><a xlink:href="bogus" xlink:title="NA">
<path fill="none" stroke="black" stroke-width="0.5" d="M1997.17,-212.33C2094.57,-220.07 2241.8,-231.76 2332.92,-239"/>
<polygon fill="black" stroke="black" stroke-width="0.5" points="2332.48,-242.47 2342.72,-239.78 2333.03,-235.5 2332.48,-242.47"/>
</a>
</g>
</g>
<!-- STOCK_PRIMO__10_HIST_USD -->
<g id="node2" class="node">
<title>STOCK_PRIMO__10_HIST_USD</title>
<g id="a_node2"><a xlink:title="STOCK_PRIMO__10_HIST_USD&#10;FRML &lt;SUM=HIST&gt; STOCK_PRIMO__10_HIST_USD = STOCK_PRIMO_IN_CURRENCY__10_HIST_USD*DOM_USD $">
<polygon fill="#63b8ff" stroke="black" points="2001.22,-114.5 1793.88,-114.5 1793.88,-78.5 2001.22,-78.5 2001.22,-114.5"/>
<g id="a_node2_2"><a xlink:title="STOCK_PRIMO__10_HIST_USD&#10;FRML &lt;SUM=HIST&gt; STOCK_PRIMO__10_HIST_USD = STOCK_PRIMO_IN_CURRENCY__10_HIST_USD*DOM_USD $">
<text xml:space="preserve" text-anchor="start" x="1799.67" y="-91.45" font-family="Times New Roman,serif" font-size="14.00" fill="blue">STOCK_PRIMO__10_HIST_USD:</text>
</a>
</g>
</a>
</g>
</g>
<!-- STOCK_PRIMO__HIST -->
<g id="node10" class="node">
<title>STOCK_PRIMO__HIST</title>
<g id="a_node10"><a xlink:title="STOCK_PRIMO__HIST&#10;FRML &lt;SUM=HIST&gt; STOCK_PRIMO__HIST = (STOCK_PRIMO__10_HIST_DOM+STOCK_PRIMO__10_HIST_USD) $">
<polygon fill="#63b8ff" stroke="black" points="3134.4,-258.5 2981.8,-258.5 2981.8,-222.5 3134.4,-222.5 3134.4,-258.5"/>
<g id="a_node10_3"><a xlink:title="STOCK_PRIMO__HIST&#10;FRML &lt;SUM=HIST&gt; STOCK_PRIMO__HIST = (STOCK_PRIMO__10_HIST_DOM+STOCK_PRIMO__10_HIST_USD) $">
<text xml:space="preserve" text-anchor="start" x="2987.6" y="-235.45" font-family="Times New Roman,serif" font-size="14.00" fill="blue">STOCK_PRIMO__HIST:</text>
</a>
</g>
</a>
</g>
</g>
<!-- STOCK_PRIMO__10_HIST_USD&#45;&gt;STOCK_PRIMO__HIST -->
<g id="edge33" class="edge">
<title>STOCK_PRIMO__10_HIST_USD&#45;&gt;STOCK_PRIMO__HIST</title>
<g id="a_edge33"><a xlink:href="bogus" xlink:title="NA">
<path fill="none" stroke="black" stroke-width="0.5" d="M2001.66,-103.6C2065.46,-108.36 2149.02,-115.26 2222.85,-123.5 2496.8,-154.09 2819.57,-203.06 2970.78,-226.76"/>
<polygon fill="black" stroke="black" stroke-width="0.5" points="2970.19,-230.21 2980.62,-228.3 2971.28,-223.3 2970.19,-230.21"/>
</a>
</g>
</g>
<!-- STOCK_PRIMO_IN_CURRENCY__10_HIST_USD -->
<g id="node3" class="node">
<title>STOCK_PRIMO_IN_CURRENCY__10_HIST_USD</title>
<g id="a_node3"><a xlink:title="STOCK_PRIMO_IN_CURRENCY__10_HIST_USD&#10;FRML &lt;&gt; STOCK_PRIMO_IN_CURRENCY__10_HIST_USD = (CURRENT_YEAR==2025+1)*200+STOCK_ULTIMO_IN_CURRENCY__10_HIST_USD(&#45;1) $">
<polygon fill="#63b8ff" stroke="black" points="1177.4,-214.5 868.8,-214.5 868.8,-178.5 1177.4,-178.5 1177.4,-214.5"/>
<g id="a_node3_4"><a xlink:title="STOCK_PRIMO_IN_CURRENCY__10_HIST_USD&#10;FRML &lt;&gt; STOCK_PRIMO_IN_CURRENCY__10_HIST_USD = (CURRENT_YEAR==2025+1)*200+STOCK_ULTIMO_IN_CURRENCY__10_HIST_USD(&#45;1) $">
<text xml:space="preserve" text-anchor="start" x="874.6" y="-191.45" font-family="Times New Roman,serif" font-size="14.00" fill="blue">STOCK_PRIMO_IN_CURRENCY__10_HIST_USD:</text>
</a>
</g>
</a>
</g>
</g>
<!-- STOCK_PRIMO_IN_CURRENCY__10_HIST_USD&#45;&gt;STOCK_PRIMO__10_HIST_USD -->
<g id="edge16" class="edge">
<title>STOCK_PRIMO_IN_CURRENCY__10_HIST_USD&#45;&gt;STOCK_PRIMO__10_HIST_USD</title>
<g id="a_edge16"><a xlink:href="bogus" xlink:title="NA">
<path fill="none" stroke="black" stroke-width="0.5" d="M1056.68,-178.04C1093.43,-158.32 1155.61,-128.18 1213.4,-115.5 1410.07,-72.33 1646.2,-78.05 1783.05,-86.81"/>
<polygon fill="black" stroke="black" stroke-width="0.5" points="1782.57,-90.28 1792.78,-87.45 1783.03,-83.3 1782.57,-90.28"/>
</a>
</g>
</g>
<!-- INTEREST_IN_CURRENCY__10_HIST_USD -->
<g id="node13" class="node">
<title>INTEREST_IN_CURRENCY__10_HIST_USD</title>
<g id="a_node13"><a xlink:title="INTEREST_IN_CURRENCY__10_HIST_USD&#10;FRML &lt;&gt; INTEREST_IN_CURRENCY__10_HIST_USD = STOCK_PRIMO_IN_CURRENCY__10_HIST_USD*2/100 $">
<polygon fill="#63b8ff" stroke="black" points="1513.75,-64.5 1235.9,-64.5 1235.9,-28.5 1513.75,-28.5 1513.75,-64.5"/>
<g id="a_node13_5"><a xlink:title="INTEREST_IN_CURRENCY__10_HIST_USD&#10;FRML &lt;&gt; INTEREST_IN_CURRENCY__10_HIST_USD = STOCK_PRIMO_IN_CURRENCY__10_HIST_USD*2/100 $">
<text xml:space="preserve" text-anchor="start" x="1241.7" y="-41.45" font-family="Times New Roman,serif" font-size="14.00" fill="blue">INTEREST_IN_CURRENCY__10_HIST_USD:</text>
</a>
</g>
</a>
</g>
</g>
<!-- STOCK_PRIMO_IN_CURRENCY__10_HIST_USD&#45;&gt;INTEREST_IN_CURRENCY__10_HIST_USD -->
<g id="edge8" class="edge">
<title>STOCK_PRIMO_IN_CURRENCY__10_HIST_USD&#45;&gt;INTEREST_IN_CURRENCY__10_HIST_USD</title>
<g id="a_edge8"><a xlink:href="bogus" xlink:title="NA">
<path fill="none" stroke="black" stroke-width="0.5" d="M1048.75,-178.07C1083.63,-152.85 1150.2,-107.85 1213.4,-82.5 1227.74,-76.75 1243.2,-71.82 1258.65,-67.62"/>
<polygon fill="black" stroke="black" stroke-width="0.5" points="1259.27,-71.08 1268.05,-65.16 1257.49,-64.3 1259.27,-71.08"/>
</a>
</g>
</g>
<!-- STOCK_ULTIMO_IN_CURRENCY__10_HIST_USD -->
<g id="node22" class="node">
<title>STOCK_ULTIMO_IN_CURRENCY__10_HIST_USD</title>
<g id="a_node22"><a xlink:title="STOCK_ULTIMO_IN_CURRENCY__10_HIST_USD&#10;FRML &lt;&gt; STOCK_ULTIMO_IN_CURRENCY__10_HIST_USD = STOCK_PRIMO_IN_CURRENCY__10_HIST_USD&#45;AMORTIZING_IN_CURRENCY__10_HIST_USD $">
<polygon fill="#63b8ff" stroke="black" points="1533.62,-214.5 1216.02,-214.5 1216.02,-178.5 1533.62,-178.5 1533.62,-214.5"/>
<g id="a_node22_6"><a xlink:title="STOCK_ULTIMO_IN_CURRENCY__10_HIST_USD&#10;FRML &lt;&gt; STOCK_ULTIMO_IN_CURRENCY__10_HIST_USD = STOCK_PRIMO_IN_CURRENCY__10_HIST_USD&#45;AMORTIZING_IN_CURRENCY__10_HIST_USD $">
<text xml:space="preserve" text-anchor="start" x="1221.82" y="-191.45" font-family="Times New Roman,serif" font-size="14.00" fill="blue">STOCK_ULTIMO_IN_CURRENCY__10_HIST_USD:</text>
</a>
</g>
</a>
</g>
</g>
<!-- STOCK_PRIMO_IN_CURRENCY__10_HIST_USD&#45;&gt;STOCK_ULTIMO_IN_CURRENCY__10_HIST_USD -->
<g id="edge20" class="edge">
<title>STOCK_PRIMO_IN_CURRENCY__10_HIST_USD&#45;&gt;STOCK_ULTIMO_IN_CURRENCY__10_HIST_USD</title>
<g id="a_edge20"><a xlink:href="bogus" xlink:title="NA">
<path fill="none" stroke="black" stroke-width="0.5" d="M1177.75,-196.5C1186.78,-196.5 1195.88,-196.5 1204.97,-196.5"/>
<polygon fill="black" stroke="black" stroke-width="0.5" points="1204.86,-200 1214.86,-196.5 1204.86,-193 1204.86,-200"/>
</a>
</g>
</g>
<!-- STOCK_ULTIMO__10_HIST_DOM -->
<g id="node4" class="node">
<title>STOCK_ULTIMO__10_HIST_DOM</title>
<g id="a_node4"><a xlink:title="STOCK_ULTIMO__10_HIST_DOM&#10;FRML &lt;SUM=HIST&gt; STOCK_ULTIMO__10_HIST_DOM = STOCK_ULTIMO_IN_CURRENCY__10_HIST_DOM*DOM_DOM $">
<polygon fill="#63b8ff" stroke="black" points="2008.35,-460.5 1786.75,-460.5 1786.75,-424.5 2008.35,-424.5 2008.35,-460.5"/>
<g id="a_node4_7"><a xlink:title="STOCK_ULTIMO__10_HIST_DOM&#10;FRML &lt;SUM=HIST&gt; STOCK_ULTIMO__10_HIST_DOM = STOCK_ULTIMO_IN_CURRENCY__10_HIST_DOM*DOM_DOM $">
<text xml:space="preserve" text-anchor="start" x="1792.55" y="-437.45" font-family="Times New Roman,serif" font-size="14.00" fill="blue">STOCK_ULTIMO__10_HIST_DOM:</text>
</a>
</g>
</a>
</g>
</g>
<!-- STOCK_ULTIMO__HIST -->
<g id="node23" class="node">
<title>STOCK_ULTIMO__HIST</title>
<g id="a_node23"><a xlink:title="STOCK_ULTIMO__HIST&#10;FRML &lt;SUM=HIST&gt; STOCK_ULTIMO__HIST = (STOCK_ULTIMO__10_HIST_DOM+STOCK_ULTIMO__10_HIST_USD) $">
<polygon fill="#63b8ff" stroke="black" points="2496.58,-395.5 2334.97,-395.5 2334.97,-359.5 2496.58,-359.5 2496.58,-395.5"/>
<g id="a_node23_8"><a xlink:title="STOCK_ULTIMO__HIST&#10;FRML &lt;SUM=HIST&gt; STOCK_ULTIMO__HIST = (STOCK_ULTIMO__10_HIST_DOM+STOCK_ULTIMO__10_HIST_USD) $">
<text xml:space="preserve" text-anchor="start" x="2340.78" y="-372.45" font-family="Times New Roman,serif" font-size="14.00" fill="blue">STOCK_ULTIMO__HIST:</text>
</a>
</g>
</a>
</g>
</g>
<!-- STOCK_ULTIMO__10_HIST_DOM&#45;&gt;STOCK_ULTIMO__HIST -->
<g id="edge14" class="edge">
<title>STOCK_ULTIMO__10_HIST_DOM&#45;&gt;STOCK_ULTIMO__HIST</title>
<g id="a_edge14"><a xlink:href="bogus" xlink:title="NA">
<path fill="none" stroke="black" stroke-width="0.5" d="M2008.66,-428.64C2102.7,-416.79 2236.34,-399.97 2324.26,-388.9"/>
<polygon fill="black" stroke="black" stroke-width="0.5" points="2324.51,-392.39 2334,-387.67 2323.64,-385.45 2324.51,-392.39"/>
</a>
</g>
</g>
<!-- INTEREST_PAYMENTS__10_HIST_USD -->
<g id="node5" class="node">
<title>INTEREST_PAYMENTS__10_HIST_USD</title>
<g id="a_node5"><a xlink:title="INTEREST_PAYMENTS__10_HIST_USD&#10;FRML &lt;SUM=HIST&gt; INTEREST_PAYMENTS__10_HIST_USD = INTEREST_IN_CURRENCY__10_HIST_USD*DOM_USD $">
<polygon fill="#63b8ff" stroke="black" points="2025.22,-60.5 1769.88,-60.5 1769.88,-24.5 2025.22,-24.5 2025.22,-60.5"/>
<g id="a_node5_9"><a xlink:title="INTEREST_PAYMENTS__10_HIST_USD&#10;FRML &lt;SUM=HIST&gt; INTEREST_PAYMENTS__10_HIST_USD = INTEREST_IN_CURRENCY__10_HIST_USD*DOM_USD $">
<text xml:space="preserve" text-anchor="start" x="1775.67" y="-37.45" font-family="Times New Roman,serif" font-size="14.00" fill="blue">INTEREST_PAYMENTS__10_HIST_USD:</text>
</a>
</g>
</a>
</g>
</g>
<!-- INTEREST_PAYMENTS__HIST -->
<g id="node8" class="node">
<title>INTEREST_PAYMENTS__HIST</title>
<g id="a_node8"><a xlink:title="INTEREST_PAYMENTS__HIST&#10;FRML &lt;SUM=HIST&gt; INTEREST_PAYMENTS__HIST = (INTEREST_PAYMENTS__10_HIST_DOM+INTEREST_PAYMENTS__10_HIST_USD) $">
<polygon fill="#63b8ff" stroke="black" points="3425,-267.5 3224.4,-267.5 3224.4,-231.5 3425,-231.5 3425,-267.5"/>
<g id="a_node8_10"><a xlink:title="INTEREST_PAYMENTS__HIST&#10;FRML &lt;SUM=HIST&gt; INTEREST_PAYMENTS__HIST = (INTEREST_PAYMENTS__10_HIST_DOM+INTEREST_PAYMENTS__10_HIST_USD) $">
<text xml:space="preserve" text-anchor="start" x="3230.2" y="-244.45" font-family="Times New Roman,serif" font-size="14.00" fill="blue">INTEREST_PAYMENTS__HIST:</text>
</a>
</g>
</a>
</g>
</g>
<!-- INTEREST_PAYMENTS__10_HIST_USD&#45;&gt;INTEREST_PAYMENTS__HIST -->
<g id="edge1" class="edge">
<title>INTEREST_PAYMENTS__10_HIST_USD&#45;&gt;INTEREST_PAYMENTS__HIST</title>
<g id="a_edge1"><a xlink:href="bogus" xlink:title="NA">
<path fill="none" stroke="black" stroke-width="0.5" d="M2025.42,-51.14C2085.37,-55.72 2157.89,-61.96 2222.85,-69.5 2653.84,-119.53 2763.52,-125.58 3188.4,-213.5 3208.57,-217.67 3230.21,-223.03 3250.13,-228.32"/>
<polygon fill="black" stroke="black" stroke-width="0.5" points="3249.09,-231.67 3259.65,-230.89 3250.9,-224.91 3249.09,-231.67"/>
</a>
</g>
</g>
<!-- AMORTIZING_IN_CURRENCY__10_HIST_USD -->
<g id="node6" class="node">
<title>AMORTIZING_IN_CURRENCY__10_HIST_USD</title>
<g id="a_node6"><a xlink:title="AMORTIZING_IN_CURRENCY__10_HIST_USD&#10;FRML &lt;&gt; AMORTIZING_IN_CURRENCY__10_HIST_USD = 200*AMORTIZING_SHARE_PR_TIME__10_HIST_USD $">
<polygon fill="#63b8ff" stroke="black" points="1172.9,-294.5 873.3,-294.5 873.3,-258.5 1172.9,-258.5 1172.9,-294.5"/>
<g id="a_node6_11"><a xlink:title="AMORTIZING_IN_CURRENCY__10_HIST_USD&#10;FRML &lt;&gt; AMORTIZING_IN_CURRENCY__10_HIST_USD = 200*AMORTIZING_SHARE_PR_TIME__10_HIST_USD $">
<text xml:space="preserve" text-anchor="start" x="879.1" y="-271.45" font-family="Times New Roman,serif" font-size="14.00" fill="blue">AMORTIZING_IN_CURRENCY__10_HIST_USD:</text>
</a>
</g>
</a>
</g>
</g>
<!-- AMORTIZING_IN_CURRENCY__10_HIST_USD&#45;&gt;AMORTIZING__10_HIST_USD -->
<g id="edge37" class="edge">
<title>AMORTIZING_IN_CURRENCY__10_HIST_USD&#45;&gt;AMORTIZING__10_HIST_USD</title>
<g id="a_edge37"><a xlink:href="bogus" xlink:title="NA">
<path fill="none" stroke="black" stroke-width="0.5" d="M1173.09,-264.2C1347.57,-249.81 1632.42,-226.3 1787.52,-213.5"/>
<polygon fill="black" stroke="black" stroke-width="0.5" points="1787.57,-217.01 1797.25,-212.69 1787,-210.03 1787.57,-217.01"/>
</a>
</g>
</g>
<!-- AMORTIZING_IN_CURRENCY__10_HIST_USD&#45;&gt;STOCK_ULTIMO_IN_CURRENCY__10_HIST_USD -->
<g id="edge13" class="edge">
<title>AMORTIZING_IN_CURRENCY__10_HIST_USD&#45;&gt;STOCK_ULTIMO_IN_CURRENCY__10_HIST_USD</title>
<g id="a_edge13"><a xlink:href="bogus" xlink:title="NA">
<path fill="none" stroke="black" stroke-width="0.5" d="M1104.77,-258.05C1157.84,-245.91 1227.39,-230 1282.49,-217.39"/>
<polygon fill="black" stroke="black" stroke-width="0.5" points="1283.25,-220.81 1292.21,-215.17 1281.69,-213.99 1283.25,-220.81"/>
</a>
</g>
</g>
<!-- LOGICAL_AMORTIZING_YEARS__10_HIST_DOM -->
<g id="node7" class="node">
<title>LOGICAL_AMORTIZING_YEARS__10_HIST_DOM</title>
<g id="a_node7"><a xlink:title="LOGICAL_AMORTIZING_YEARS__10_HIST_DOM&#10;FRML &lt;&gt; LOGICAL_AMORTIZING_YEARS__10_HIST_DOM = (2025+0)&lt;CURRENT_YEAR&lt;=(2025+10) $">
<polygon fill="#63b8ff" stroke="black" points="478.45,-348.5 157.85,-348.5 157.85,-312.5 478.45,-312.5 478.45,-348.5"/>
<g id="a_node7_12"><a xlink:title="LOGICAL_AMORTIZING_YEARS__10_HIST_DOM&#10;FRML &lt;&gt; LOGICAL_AMORTIZING_YEARS__10_HIST_DOM = (2025+0)&lt;CURRENT_YEAR&lt;=(2025+10) $">
<text xml:space="preserve" text-anchor="start" x="163.65" y="-325.45" font-family="Times New Roman,serif" font-size="14.00" fill="blue">LOGICAL_AMORTIZING_YEARS__10_HIST_DOM:</text>
</a>
</g>
</a>
</g>
</g>
<!-- AMORTIZING_SHARE_PR_TIME__10_HIST_DOM -->
<g id="node24" class="node">
<title>AMORTIZING_SHARE_PR_TIME__10_HIST_DOM</title>
<g id="a_node24"><a xlink:title="AMORTIZING_SHARE_PR_TIME__10_HIST_DOM&#10;FRML &lt;&gt; AMORTIZING_SHARE_PR_TIME__10_HIST_DOM = LOGICAL_AMORTIZING_YEARS__10_HIST_DOM/(10&#45;0) $">
<polygon fill="#63b8ff" stroke="black" points="832.8,-348.5 514.45,-348.5 514.45,-312.5 832.8,-312.5 832.8,-348.5"/>
<g id="a_node24_13"><a xlink:title="AMORTIZING_SHARE_PR_TIME__10_HIST_DOM&#10;FRML &lt;&gt; AMORTIZING_SHARE_PR_TIME__10_HIST_DOM = LOGICAL_AMORTIZING_YEARS__10_HIST_DOM/(10&#45;0) $">
<text xml:space="preserve" text-anchor="start" x="520.25" y="-325.45" font-family="Times New Roman,serif" font-size="14.00" fill="blue">AMORTIZING_SHARE_PR_TIME__10_HIST_DOM:</text>
</a>
</g>
</a>
</g>
</g>
<!-- LOGICAL_AMORTIZING_YEARS__10_HIST_DOM&#45;&gt;AMORTIZING_SHARE_PR_TIME__10_HIST_DOM -->
<g id="edge25" class="edge">
<title>LOGICAL_AMORTIZING_YEARS__10_HIST_DOM&#45;&gt;AMORTIZING_SHARE_PR_TIME__10_HIST_DOM</title>
<g id="a_edge25"><a xlink:href="bogus" xlink:title="NA">
<path fill="none" stroke="black" stroke-width="0.5" d="M478.82,-330.5C486.97,-330.5 495.16,-330.5 503.33,-330.5"/>
<polygon fill="black" stroke="black" stroke-width="0.5" points="503.29,-334 513.29,-330.5 503.29,-327 503.29,-334"/>
</a>
</g>
</g>
<!-- INTEREST_PAYMENTS__10_HIST_DOM -->
<g id="node9" class="node">
<title>INTEREST_PAYMENTS__10_HIST_DOM</title>
<g id="a_node9"><a xlink:title="INTEREST_PAYMENTS__10_HIST_DOM&#10;FRML &lt;SUM=HIST&gt; INTEREST_PAYMENTS__10_HIST_DOM = INTEREST_IN_CURRENCY__10_HIST_DOM*DOM_DOM $">
<polygon fill="#63b8ff" stroke="black" points="3188.4,-441.5 2927.8,-441.5 2927.8,-405.5 3188.4,-405.5 3188.4,-441.5"/>
<g id="a_node9_14"><a xlink:title="INTEREST_PAYMENTS__10_HIST_DOM&#10;FRML &lt;SUM=HIST&gt; INTEREST_PAYMENTS__10_HIST_DOM = INTEREST_IN_CURRENCY__10_HIST_DOM*DOM_DOM $">
<text xml:space="preserve" text-anchor="start" x="2933.6" y="-418.45" font-family="Times New Roman,serif" font-size="14.00" fill="blue">INTEREST_PAYMENTS__10_HIST_DOM:</text>
</a>
</g>
</a>
</g>
</g>
<!-- INTEREST_PAYMENTS__10_HIST_DOM&#45;&gt;INTEREST_PAYMENTS__HIST -->
<g id="edge15" class="edge">
<title>INTEREST_PAYMENTS__10_HIST_DOM&#45;&gt;INTEREST_PAYMENTS__HIST</title>
<g id="a_edge15"><a xlink:href="bogus" xlink:title="NA">
<path fill="none" stroke="black" stroke-width="0.5" d="M3086.92,-405.21C3134.96,-373.62 3233.46,-308.84 3287.03,-273.61"/>
<polygon fill="black" stroke="black" stroke-width="0.5" points="3288.79,-276.64 3295.23,-268.22 3284.95,-270.79 3288.79,-276.64"/>
</a>
</g>
</g>
<!-- STOCK_ULTIMO_IN_CURRENCY__10_HIST_DOM -->
<g id="node11" class="node">
<title>STOCK_ULTIMO_IN_CURRENCY__10_HIST_DOM</title>
<g id="a_node11"><a xlink:title="STOCK_ULTIMO_IN_CURRENCY__10_HIST_DOM&#10;FRML &lt;&gt; STOCK_ULTIMO_IN_CURRENCY__10_HIST_DOM = STOCK_PRIMO_IN_CURRENCY__10_HIST_DOM&#45;AMORTIZING_IN_CURRENCY__10_HIST_DOM $">
<polygon fill="#63b8ff" stroke="black" points="1536.25,-487.5 1213.4,-487.5 1213.4,-451.5 1536.25,-451.5 1536.25,-487.5"/>
<g id="a_node11_15"><a xlink:title="STOCK_ULTIMO_IN_CURRENCY__10_HIST_DOM&#10;FRML &lt;&gt; STOCK_ULTIMO_IN_CURRENCY__10_HIST_DOM = STOCK_PRIMO_IN_CURRENCY__10_HIST_DOM&#45;AMORTIZING_IN_CURRENCY__10_HIST_DOM $">
<text xml:space="preserve" text-anchor="start" x="1219.2" y="-464.45" font-family="Times New Roman,serif" font-size="14.00" fill="blue">STOCK_ULTIMO_IN_CURRENCY__10_HIST_DOM:</text>
</a>
</g>
</a>
</g>
</g>
<!-- STOCK_ULTIMO_IN_CURRENCY__10_HIST_DOM&#45;&gt;STOCK_ULTIMO__10_HIST_DOM -->
<g id="edge36" class="edge">
<title>STOCK_ULTIMO_IN_CURRENCY__10_HIST_DOM&#45;&gt;STOCK_ULTIMO__10_HIST_DOM</title>
<g id="a_edge36"><a xlink:href="bogus" xlink:title="NA">
<path fill="none" stroke="black" stroke-width="0.5" d="M1536.66,-461.16C1613.98,-457.15 1705.07,-452.43 1776.27,-448.74"/>
<polygon fill="black" stroke="black" stroke-width="0.5" points="1776.06,-452.25 1785.87,-448.24 1775.7,-445.26 1776.06,-452.25"/>
</a>
</g>
</g>
<!-- STOCK_ULTIMO_IN_CURRENCY__10_HIST_DOM(&#45;1) -->
<g id="node12" class="node">
<title>STOCK_ULTIMO_IN_CURRENCY__10_HIST_DOM(&#45;1)</title>
<g id="a_node12"><a xlink:title="STOCK_ULTIMO_IN_CURRENCY__10_HIST_DOM&#10;FRML &lt;&gt; STOCK_ULTIMO_IN_CURRENCY__10_HIST_DOM = STOCK_PRIMO_IN_CURRENCY__10_HIST_DOM&#45;AMORTIZING_IN_CURRENCY__10_HIST_DOM $">
<polygon fill="springgreen" stroke="black" points="2222.85,-514.5 1572.25,-514.5 1572.25,-478.5 2222.85,-478.5 2222.85,-514.5"/>
<g id="a_node12_16"><a xlink:title="STOCK_ULTIMO_IN_CURRENCY__10_HIST_DOM&#10;FRML &lt;&gt; STOCK_ULTIMO_IN_CURRENCY__10_HIST_DOM = STOCK_PRIMO_IN_CURRENCY__10_HIST_DOM&#45;AMORTIZING_IN_CURRENCY__10_HIST_DOM $">
<text xml:space="preserve" text-anchor="start" x="1578.05" y="-491.45" font-family="Times New Roman,serif" font-size="14.00" fill="blue">STOCK_ULTIMO_IN_CURRENCY__10_HIST_DOM(&#45;1):STOCK_ULTIMO_IN_CURRENCY__10_HIST_DOM</text>
</a>
</g>
</a>
</g>
</g>
<!-- STOCK_ULTIMO_IN_CURRENCY__10_HIST_DOM&#45;&gt;STOCK_ULTIMO_IN_CURRENCY__10_HIST_DOM(&#45;1) -->
<g id="edge34" class="edge">
<title>STOCK_ULTIMO_IN_CURRENCY__10_HIST_DOM&#45;&gt;STOCK_ULTIMO_IN_CURRENCY__10_HIST_DOM(&#45;1)</title>
<g id="a_edge34"><a xlink:href="bogus" xlink:title="NA">
<path fill="none" stroke="black" stroke-width="0.5" d="M1536.66,-477.84C1544.75,-478.26 1552.99,-478.69 1561.34,-479.12"/>
<polygon fill="black" stroke="black" stroke-width="0.5" points="1561.05,-482.61 1571.22,-479.63 1561.41,-475.62 1561.05,-482.61"/>
</a>
</g>
</g>
<!-- STOCK_PRIMO_IN_CURRENCY__10_HIST_DOM -->
<g id="node17" class="node">
<title>STOCK_PRIMO_IN_CURRENCY__10_HIST_DOM</title>
<g id="a_node17"><a xlink:title="STOCK_PRIMO_IN_CURRENCY__10_HIST_DOM&#10;FRML &lt;&gt; STOCK_PRIMO_IN_CURRENCY__10_HIST_DOM = (CURRENT_YEAR==2025+1)*1000+STOCK_ULTIMO_IN_CURRENCY__10_HIST_DOM(&#45;1) $">
<polygon fill="#63b8ff" stroke="black" points="2572.7,-514.5 2258.85,-514.5 2258.85,-478.5 2572.7,-478.5 2572.7,-514.5"/>
<g id="a_node17_17"><a xlink:title="STOCK_PRIMO_IN_CURRENCY__10_HIST_DOM&#10;FRML &lt;&gt; STOCK_PRIMO_IN_CURRENCY__10_HIST_DOM = (CURRENT_YEAR==2025+1)*1000+STOCK_ULTIMO_IN_CURRENCY__10_HIST_DOM(&#45;1) $">
<text xml:space="preserve" text-anchor="start" x="2264.65" y="-491.45" font-family="Times New Roman,serif" font-size="14.00" fill="blue">STOCK_PRIMO_IN_CURRENCY__10_HIST_DOM:</text>
</a>
</g>
</a>
</g>
</g>
<!-- STOCK_ULTIMO_IN_CURRENCY__10_HIST_DOM(&#45;1)&#45;&gt;STOCK_PRIMO_IN_CURRENCY__10_HIST_DOM -->
<g id="edge2" class="edge">
<title>STOCK_ULTIMO_IN_CURRENCY__10_HIST_DOM(&#45;1)&#45;&gt;STOCK_PRIMO_IN_CURRENCY__10_HIST_DOM</title>
<g id="a_edge2"><a xlink:href="bogus" xlink:title="NA">
<path fill="none" stroke="black" stroke-width="0.5" d="M2223.29,-496.5C2231.64,-496.5 2239.9,-496.5 2248.01,-496.5"/>
<polygon fill="black" stroke="black" stroke-width="0.5" points="2247.84,-500 2257.84,-496.5 2247.84,-493 2247.84,-500"/>
</a>
</g>
</g>
<!-- INTEREST_IN_CURRENCY__10_HIST_USD&#45;&gt;INTEREST_PAYMENTS__10_HIST_USD -->
<g id="edge18" class="edge">
<title>INTEREST_IN_CURRENCY__10_HIST_USD&#45;&gt;INTEREST_PAYMENTS__10_HIST_USD</title>
<g id="a_edge18"><a xlink:href="bogus" xlink:title="NA">
<path fill="none" stroke="black" stroke-width="0.5" d="M1514,-45.44C1589.83,-44.86 1683.54,-44.14 1759.23,-43.55"/>
<polygon fill="black" stroke="black" stroke-width="0.5" points="1759.06,-47.06 1769.03,-43.48 1759,-40.06 1759.06,-47.06"/>
</a>
</g>
</g>
<!-- AMORTIZING_IN_CURRENCY__10_HIST_DOM -->
<g id="node14" class="node">
<title>AMORTIZING_IN_CURRENCY__10_HIST_DOM</title>
<g id="a_node14"><a xlink:title="AMORTIZING_IN_CURRENCY__10_HIST_DOM&#10;FRML &lt;&gt; AMORTIZING_IN_CURRENCY__10_HIST_DOM = 1000*AMORTIZING_SHARE_PR_TIME__10_HIST_DOM $">
<polygon fill="#63b8ff" stroke="black" points="1175.52,-348.5 870.67,-348.5 870.67,-312.5 1175.52,-312.5 1175.52,-348.5"/>
<g id="a_node14_18"><a xlink:title="AMORTIZING_IN_CURRENCY__10_HIST_DOM&#10;FRML &lt;&gt; AMORTIZING_IN_CURRENCY__10_HIST_DOM = 1000*AMORTIZING_SHARE_PR_TIME__10_HIST_DOM $">
<text xml:space="preserve" text-anchor="start" x="876.47" y="-325.45" font-family="Times New Roman,serif" font-size="14.00" fill="blue">AMORTIZING_IN_CURRENCY__10_HIST_DOM:</text>
</a>
</g>
</a>
</g>
</g>
<!-- AMORTIZING_IN_CURRENCY__10_HIST_DOM&#45;&gt;STOCK_ULTIMO_IN_CURRENCY__10_HIST_DOM -->
<g id="edge30" class="edge">
<title>AMORTIZING_IN_CURRENCY__10_HIST_DOM&#45;&gt;STOCK_ULTIMO_IN_CURRENCY__10_HIST_DOM</title>
<g id="a_edge30"><a xlink:href="bogus" xlink:title="NA">
<path fill="none" stroke="black" stroke-width="0.5" d="M1070.54,-348.96C1134.38,-374.33 1249.13,-419.94 1317.7,-447.19"/>
<polygon fill="black" stroke="black" stroke-width="0.5" points="1316.18,-450.36 1326.77,-450.8 1318.77,-443.85 1316.18,-450.36"/>
</a>
</g>
</g>
<!-- AMORTIZING__10_HIST_DOM -->
<g id="node20" class="node">
<title>AMORTIZING__10_HIST_DOM</title>
<g id="a_node20"><a xlink:title="AMORTIZING__10_HIST_DOM&#10;FRML &lt;SUM=HIST&gt; AMORTIZING__10_HIST_DOM = AMORTIZING_IN_CURRENCY__10_HIST_DOM*DOM_DOM $">
<polygon fill="#63b8ff" stroke="black" points="1999.35,-330.5 1795.75,-330.5 1795.75,-294.5 1999.35,-294.5 1999.35,-330.5"/>
<g id="a_node20_19"><a xlink:title="AMORTIZING__10_HIST_DOM&#10;FRML &lt;SUM=HIST&gt; AMORTIZING__10_HIST_DOM = AMORTIZING_IN_CURRENCY__10_HIST_DOM*DOM_DOM $">
<text xml:space="preserve" text-anchor="start" x="1801.55" y="-307.45" font-family="Times New Roman,serif" font-size="14.00" fill="blue">AMORTIZING__10_HIST_DOM:</text>
</a>
</g>
</a>
</g>
</g>
<!-- AMORTIZING_IN_CURRENCY__10_HIST_DOM&#45;&gt;AMORTIZING__10_HIST_DOM -->
<g id="edge38" class="edge">
<title>AMORTIZING_IN_CURRENCY__10_HIST_DOM&#45;&gt;AMORTIZING__10_HIST_DOM</title>
<g id="a_edge38"><a xlink:href="bogus" xlink:title="NA">
<path fill="none" stroke="black" stroke-width="0.5" d="M1175.57,-327.37C1349.32,-323.79 1630.1,-318 1785.01,-314.8"/>
<polygon fill="black" stroke="black" stroke-width="0.5" points="1784.8,-318.31 1794.73,-314.6 1784.66,-311.31 1784.8,-318.31"/>
</a>
</g>
</g>
<!-- STOCK_ULTIMO__10_HIST_USD -->
<g id="node15" class="node">
<title>STOCK_ULTIMO__10_HIST_USD</title>
<g id="a_node15"><a xlink:title="STOCK_ULTIMO__10_HIST_USD&#10;FRML &lt;SUM=HIST&gt; STOCK_ULTIMO__10_HIST_USD = STOCK_ULTIMO_IN_CURRENCY__10_HIST_USD*DOM_USD $">
<polygon fill="#63b8ff" stroke="black" points="2005.72,-168.5 1789.38,-168.5 1789.38,-132.5 2005.72,-132.5 2005.72,-168.5"/>
<g id="a_node15_20"><a xlink:title="STOCK_ULTIMO__10_HIST_USD&#10;FRML &lt;SUM=HIST&gt; STOCK_ULTIMO__10_HIST_USD = STOCK_ULTIMO_IN_CURRENCY__10_HIST_USD*DOM_USD $">
<text xml:space="preserve" text-anchor="start" x="1795.17" y="-145.45" font-family="Times New Roman,serif" font-size="14.00" fill="blue">STOCK_ULTIMO__10_HIST_USD:</text>
</a>
</g>
</a>
</g>
</g>
<!-- STOCK_ULTIMO__10_HIST_USD&#45;&gt;STOCK_ULTIMO__HIST -->
<g id="edge3" class="edge">
<title>STOCK_ULTIMO__10_HIST_USD&#45;&gt;STOCK_ULTIMO__HIST</title>
<g id="a_edge3"><a xlink:href="bogus" xlink:title="NA">
<path fill="none" stroke="black" stroke-width="0.5" d="M2006.21,-132.16C2074.76,-126.58 2161.83,-131.51 2222.85,-177.5 2258.91,-204.67 2230.8,-237.11 2258.85,-272.5 2287.11,-308.15 2330.82,-336.11 2364.78,-354.18"/>
<polygon fill="black" stroke="black" stroke-width="0.5" points="2362.92,-357.16 2373.41,-358.67 2366.15,-350.95 2362.92,-357.16"/>
</a>
</g>
</g>
<!-- DOM_USD -->
<g id="node16" class="node">
<title>DOM_USD</title>
<g id="a_node16"><a xlink:title="DOM_USD&#10;Exogen">
<polygon fill="yellow" stroke="black" points="1415.5,-160.5 1334.15,-160.5 1334.15,-124.5 1415.5,-124.5 1415.5,-160.5"/>
<g id="a_node16_21"><a xlink:title="DOM_USD&#10;Exogen">
<text xml:space="preserve" text-anchor="start" x="1339.95" y="-137.45" font-family="Times New Roman,serif" font-size="14.00" fill="blue">DOM_USD:</text>
</a>
</g>
</a>
</g>
</g>
<!-- DOM_USD&#45;&gt;AMORTIZING__10_HIST_USD -->
<g id="edge19" class="edge">
<title>DOM_USD&#45;&gt;AMORTIZING__10_HIST_USD</title>
<g id="a_edge19"><a xlink:href="bogus" xlink:title="NA">
<path fill="none" stroke="black" stroke-width="0.5" d="M1415.82,-148.64C1448.33,-153.77 1495.36,-161.52 1536.25,-169.5 1552.34,-172.64 1556.05,-175.04 1572.25,-177.5 1643.68,-188.36 1724.67,-195.11 1787.84,-199.14"/>
<polygon fill="black" stroke="black" stroke-width="0.5" points="1787.27,-202.61 1797.47,-199.74 1787.71,-195.62 1787.27,-202.61"/>
</a>
</g>
</g>
<!-- DOM_USD&#45;&gt;STOCK_PRIMO__10_HIST_USD -->
<g id="edge26" class="edge">
<title>DOM_USD&#45;&gt;STOCK_PRIMO__10_HIST_USD</title>
<g id="a_edge26"><a xlink:href="bogus" xlink:title="NA">
<path fill="none" stroke="black" stroke-width="0.5" d="M1415.69,-138.49C1455.36,-134.53 1517.99,-128.38 1572.25,-123.5 1642.2,-117.21 1720.68,-110.66 1782.92,-105.59"/>
<polygon fill="black" stroke="black" stroke-width="0.5" points="1783.11,-109.08 1792.8,-104.78 1782.55,-102.11 1783.11,-109.08"/>
</a>
</g>
</g>
<!-- DOM_USD&#45;&gt;INTEREST_PAYMENTS__10_HIST_USD -->
<g id="edge41" class="edge">
<title>DOM_USD&#45;&gt;INTEREST_PAYMENTS__10_HIST_USD</title>
<g id="a_edge41"><a xlink:href="bogus" xlink:title="NA">
<path fill="none" stroke="black" stroke-width="0.5" d="M1415.48,-124.1C1454.47,-106.89 1516.15,-82.01 1572.25,-69.5 1632.6,-56.04 1700.61,-49.15 1758.71,-45.68"/>
<polygon fill="black" stroke="black" stroke-width="0.5" points="1758.9,-49.18 1768.69,-45.11 1758.51,-42.19 1758.9,-49.18"/>
</a>
</g>
</g>
<!-- DOM_USD&#45;&gt;STOCK_ULTIMO__10_HIST_USD -->
<g id="edge17" class="edge">
<title>DOM_USD&#45;&gt;STOCK_ULTIMO__10_HIST_USD</title>
<g id="a_edge17"><a xlink:href="bogus" xlink:title="NA">
<path fill="none" stroke="black" stroke-width="0.5" d="M1415.82,-143.11C1492.44,-144.29 1662.56,-146.91 1778.44,-148.69"/>
<polygon fill="black" stroke="black" stroke-width="0.5" points="1778.32,-152.18 1788.38,-148.84 1778.43,-145.18 1778.32,-152.18"/>
</a>
</g>
</g>
<!-- STOCK_PRIMO_IN_CURRENCY__10_HIST_DOM&#45;&gt;STOCK_ULTIMO_IN_CURRENCY__10_HIST_DOM -->
<g id="edge31" class="edge">
<title>STOCK_PRIMO_IN_CURRENCY__10_HIST_DOM&#45;&gt;STOCK_ULTIMO_IN_CURRENCY__10_HIST_DOM</title>
<g id="a_edge31"><a xlink:href="bogus" xlink:title="NA">
<path fill="none" stroke="black" stroke-width="0.5" d="M2302.4,-514.99C2276.36,-518.53 2248.7,-521.69 2222.85,-523.5 1934.4,-543.69 1858.81,-562.17 1572.25,-523.5 1526.4,-517.31 1476.12,-503.35 1437.91,-491.17"/>
<polygon fill="black" stroke="black" stroke-width="0.5" points="1439.28,-487.94 1428.69,-488.19 1437.13,-494.6 1439.28,-487.94"/>
</a>
</g>
</g>
<!-- STOCK_PRIMO__10_HIST_DOM -->
<g id="node21" class="node">
<title>STOCK_PRIMO__10_HIST_DOM</title>
<g id="a_node21"><a xlink:title="STOCK_PRIMO__10_HIST_DOM&#10;FRML &lt;SUM=HIST&gt; STOCK_PRIMO__10_HIST_DOM = STOCK_PRIMO_IN_CURRENCY__10_HIST_DOM*DOM_DOM $">
<polygon fill="#63b8ff" stroke="black" points="2856.55,-349.5 2643.95,-349.5 2643.95,-313.5 2856.55,-313.5 2856.55,-349.5"/>
<g id="a_node21_22"><a xlink:title="STOCK_PRIMO__10_HIST_DOM&#10;FRML &lt;SUM=HIST&gt; STOCK_PRIMO__10_HIST_DOM = STOCK_PRIMO_IN_CURRENCY__10_HIST_DOM*DOM_DOM $">
<text xml:space="preserve" text-anchor="start" x="2649.75" y="-326.45" font-family="Times New Roman,serif" font-size="14.00" fill="blue">STOCK_PRIMO__10_HIST_DOM:</text>
</a>
</g>
</a>
</g>
</g>
<!-- STOCK_PRIMO_IN_CURRENCY__10_HIST_DOM&#45;&gt;STOCK_PRIMO__10_HIST_DOM -->
<g id="edge9" class="edge">
<title>STOCK_PRIMO_IN_CURRENCY__10_HIST_DOM&#45;&gt;STOCK_PRIMO__10_HIST_DOM</title>
<g id="a_edge9"><a xlink:href="bogus" xlink:title="NA">
<path fill="none" stroke="black" stroke-width="0.5" d="M2453.95,-478.05C2514.92,-447.8 2636.03,-387.69 2702.64,-354.63"/>
<polygon fill="black" stroke="black" stroke-width="0.5" points="2703.98,-357.87 2711.39,-350.29 2700.87,-351.6 2703.98,-357.87"/>
</a>
</g>
</g>
<!-- INTEREST_IN_CURRENCY__10_HIST_DOM -->
<g id="node27" class="node">
<title>INTEREST_IN_CURRENCY__10_HIST_DOM</title>
<g id="a_node27"><a xlink:title="INTEREST_IN_CURRENCY__10_HIST_DOM&#10;FRML &lt;&gt; INTEREST_IN_CURRENCY__10_HIST_DOM = STOCK_PRIMO_IN_CURRENCY__10_HIST_DOM*3/100 $">
<polygon fill="#63b8ff" stroke="black" points="2891.8,-500.5 2608.7,-500.5 2608.7,-464.5 2891.8,-464.5 2891.8,-500.5"/>
<g id="a_node27_23"><a xlink:title="INTEREST_IN_CURRENCY__10_HIST_DOM&#10;FRML &lt;&gt; INTEREST_IN_CURRENCY__10_HIST_DOM = STOCK_PRIMO_IN_CURRENCY__10_HIST_DOM*3/100 $">
<text xml:space="preserve" text-anchor="start" x="2614.5" y="-477.45" font-family="Times New Roman,serif" font-size="14.00" fill="blue">INTEREST_IN_CURRENCY__10_HIST_DOM:</text>
</a>
</g>
</a>
</g>
</g>
<!-- STOCK_PRIMO_IN_CURRENCY__10_HIST_DOM&#45;&gt;INTEREST_IN_CURRENCY__10_HIST_DOM -->
<g id="edge10" class="edge">
<title>STOCK_PRIMO_IN_CURRENCY__10_HIST_DOM&#45;&gt;INTEREST_IN_CURRENCY__10_HIST_DOM</title>
<g id="a_edge10"><a xlink:href="bogus" xlink:title="NA">
<path fill="none" stroke="black" stroke-width="0.5" d="M2572.79,-489.93C2581.15,-489.58 2589.55,-489.22 2597.9,-488.87"/>
<polygon fill="black" stroke="black" stroke-width="0.5" points="2597.84,-492.38 2607.68,-488.46 2597.54,-485.39 2597.84,-492.38"/>
</a>
</g>
</g>
<!-- CURRENT_YEAR -->
<g id="node18" class="node">
<title>CURRENT_YEAR</title>
<g id="a_node18"><a xlink:title="CURRENT_YEAR&#10;Exogen">
<polygon fill="yellow" stroke="black" points="121.85,-321.5 0,-321.5 0,-285.5 121.85,-285.5 121.85,-321.5"/>
<g id="a_node18_24"><a xlink:title="CURRENT_YEAR&#10;Exogen">
<text xml:space="preserve" text-anchor="start" x="5.8" y="-298.45" font-family="Times New Roman,serif" font-size="14.00" fill="blue">CURRENT_YEAR:</text>
</a>
</g>
</a>
</g>
</g>
<!-- CURRENT_YEAR&#45;&gt;STOCK_PRIMO_IN_CURRENCY__10_HIST_USD -->
<g id="edge4" class="edge">
<title>CURRENT_YEAR&#45;&gt;STOCK_PRIMO_IN_CURRENCY__10_HIST_USD</title>
<g id="a_edge4"><a xlink:href="bogus" xlink:title="NA">
<path fill="none" stroke="black" stroke-width="0.5" d="M86.96,-285.22C105.53,-272.73 132.01,-257.13 157.85,-249.5 393.81,-179.86 681.28,-177.6 857.97,-185.03"/>
<polygon fill="black" stroke="black" stroke-width="0.5" points="857.76,-188.52 867.91,-185.46 858.07,-181.53 857.76,-188.52"/>
</a>
</g>
</g>
<!-- CURRENT_YEAR&#45;&gt;LOGICAL_AMORTIZING_YEARS__10_HIST_DOM -->
<g id="edge32" class="edge">
<title>CURRENT_YEAR&#45;&gt;LOGICAL_AMORTIZING_YEARS__10_HIST_DOM</title>
<g id="a_edge32"><a xlink:href="bogus" xlink:title="NA">
<path fill="none" stroke="black" stroke-width="0.5" d="M122.09,-309.86C129.94,-310.7 138.28,-311.58 146.91,-312.49"/>
<polygon fill="black" stroke="black" stroke-width="0.5" points="146.51,-315.97 156.82,-313.54 147.24,-309.01 146.51,-315.97"/>
</a>
</g>
</g>
<!-- CURRENT_YEAR&#45;&gt;STOCK_PRIMO_IN_CURRENCY__10_HIST_DOM -->
<g id="edge24" class="edge">
<title>CURRENT_YEAR&#45;&gt;STOCK_PRIMO_IN_CURRENCY__10_HIST_DOM</title>
<g id="a_edge24"><a xlink:href="bogus" xlink:title="NA">
<path fill="none" stroke="black" stroke-width="0.5" d="M83.84,-321.89C159.88,-383.76 421.45,-580.5 672.62,-580.5 672.62,-580.5 672.62,-580.5 1375.82,-580.5 1752.55,-580.5 1850.42,-605.23 2222.85,-548.5 2265.9,-541.94 2313.12,-529.22 2349.95,-518"/>
<polygon fill="black" stroke="black" stroke-width="0.5" points="2350.81,-521.4 2359.33,-515.11 2348.74,-514.71 2350.81,-521.4"/>
</a>
</g>
</g>
<!-- LOGICAL_AMORTIZING_YEARS__10_HIST_USD -->
<g id="node19" class="node">
<title>LOGICAL_AMORTIZING_YEARS__10_HIST_USD</title>
<g id="a_node19"><a xlink:title="LOGICAL_AMORTIZING_YEARS__10_HIST_USD&#10;FRML &lt;&gt; LOGICAL_AMORTIZING_YEARS__10_HIST_USD = (2025+0)&lt;CURRENT_YEAR&lt;=(2025+10) $">
<polygon fill="#63b8ff" stroke="black" points="475.83,-294.5 160.48,-294.5 160.48,-258.5 475.83,-258.5 475.83,-294.5"/>
<g id="a_node19_25"><a xlink:title="LOGICAL_AMORTIZING_YEARS__10_HIST_USD&#10;FRML &lt;&gt; LOGICAL_AMORTIZING_YEARS__10_HIST_USD = (2025+0)&lt;CURRENT_YEAR&lt;=(2025+10) $">
<text xml:space="preserve" text-anchor="start" x="166.28" y="-271.45" font-family="Times New Roman,serif" font-size="14.00" fill="blue">LOGICAL_AMORTIZING_YEARS__10_HIST_USD:</text>
</a>
</g>
</a>
</g>
</g>
<!-- CURRENT_YEAR&#45;&gt;LOGICAL_AMORTIZING_YEARS__10_HIST_USD -->
<g id="edge12" class="edge">
<title>CURRENT_YEAR&#45;&gt;LOGICAL_AMORTIZING_YEARS__10_HIST_USD</title>
<g id="a_edge12"><a xlink:href="bogus" xlink:title="NA">
<path fill="none" stroke="black" stroke-width="0.5" d="M122.09,-297.14C130.74,-296.22 139.98,-295.24 149.56,-294.23"/>
<polygon fill="black" stroke="black" stroke-width="0.5" points="149.74,-297.73 159.31,-293.2 149,-290.77 149.74,-297.73"/>
</a>
</g>
</g>
<!-- AMORTIZING_SHARE_PR_TIME__10_HIST_USD -->
<g id="node25" class="node">
<title>AMORTIZING_SHARE_PR_TIME__10_HIST_USD</title>
<g id="a_node25"><a xlink:title="AMORTIZING_SHARE_PR_TIME__10_HIST_USD&#10;FRML &lt;&gt; AMORTIZING_SHARE_PR_TIME__10_HIST_USD = LOGICAL_AMORTIZING_YEARS__10_HIST_USD/(10&#45;0) $">
<polygon fill="#63b8ff" stroke="black" points="830.17,-294.5 517.08,-294.5 517.08,-258.5 830.17,-258.5 830.17,-294.5"/>
<g id="a_node25_26"><a xlink:title="AMORTIZING_SHARE_PR_TIME__10_HIST_USD&#10;FRML &lt;&gt; AMORTIZING_SHARE_PR_TIME__10_HIST_USD = LOGICAL_AMORTIZING_YEARS__10_HIST_USD/(10&#45;0) $">
<text xml:space="preserve" text-anchor="start" x="522.88" y="-271.45" font-family="Times New Roman,serif" font-size="14.00" fill="blue">AMORTIZING_SHARE_PR_TIME__10_HIST_USD:</text>
</a>
</g>
</a>
</g>
</g>
<!-- LOGICAL_AMORTIZING_YEARS__10_HIST_USD&#45;&gt;AMORTIZING_SHARE_PR_TIME__10_HIST_USD -->
<g id="edge7" class="edge">
<title>LOGICAL_AMORTIZING_YEARS__10_HIST_USD&#45;&gt;AMORTIZING_SHARE_PR_TIME__10_HIST_USD</title>
<g id="a_edge7"><a xlink:href="bogus" xlink:title="NA">
<path fill="none" stroke="black" stroke-width="0.5" d="M476.25,-276.5C486.13,-276.5 496.1,-276.5 506.03,-276.5"/>
<polygon fill="black" stroke="black" stroke-width="0.5" points="506.02,-280 516.02,-276.5 506.02,-273 506.02,-280"/>
</a>
</g>
</g>
<!-- AMORTIZING__10_HIST_DOM&#45;&gt;AMORTIZING__HIST -->
<g id="edge22" class="edge">
<title>AMORTIZING__10_HIST_DOM&#45;&gt;AMORTIZING__HIST</title>
<g id="a_edge22"><a xlink:href="bogus" xlink:title="NA">
<path fill="none" stroke="black" stroke-width="0.5" d="M1999.71,-307.27C2063.86,-303.17 2148.49,-296.3 2222.85,-285.5 2259.33,-280.2 2299.29,-272.23 2333.26,-264.79"/>
<polygon fill="black" stroke="black" stroke-width="0.5" points="2333.85,-268.24 2342.86,-262.67 2332.34,-261.41 2333.85,-268.24"/>
</a>
</g>
</g>
<!-- STOCK_PRIMO__10_HIST_DOM&#45;&gt;STOCK_PRIMO__HIST -->
<g id="edge23" class="edge">
<title>STOCK_PRIMO__10_HIST_DOM&#45;&gt;STOCK_PRIMO__HIST</title>
<g id="a_edge23"><a xlink:href="bogus" xlink:title="NA">
<path fill="none" stroke="black" stroke-width="0.5" d="M2813.14,-313.08C2862.81,-298.31 2932.61,-277.54 2984.84,-262"/>
<polygon fill="black" stroke="black" stroke-width="0.5" points="2985.72,-265.39 2994.31,-259.18 2983.73,-258.68 2985.72,-265.39"/>
</a>
</g>
</g>
<!-- STOCK_ULTIMO_IN_CURRENCY__10_HIST_USD&#45;&gt;STOCK_ULTIMO__10_HIST_USD -->
<g id="edge5" class="edge">
<title>STOCK_ULTIMO_IN_CURRENCY__10_HIST_USD&#45;&gt;STOCK_ULTIMO__10_HIST_USD</title>
<g id="a_edge5"><a xlink:href="bogus" xlink:title="NA">
<path fill="none" stroke="black" stroke-width="0.5" d="M1533.94,-181.02C1546.9,-179.81 1559.8,-178.62 1572.25,-177.5 1640.6,-171.35 1717.1,-164.96 1778.63,-159.94"/>
<polygon fill="black" stroke="black" stroke-width="0.5" points="1778.72,-163.44 1788.4,-159.14 1778.15,-156.46 1778.72,-163.44"/>
</a>
</g>
</g>
<!-- STOCK_ULTIMO_IN_CURRENCY__10_HIST_USD(&#45;1) -->
<g id="node28" class="node">
<title>STOCK_ULTIMO_IN_CURRENCY__10_HIST_USD(&#45;1)</title>
<g id="a_node28"><a xlink:title="STOCK_ULTIMO_IN_CURRENCY__10_HIST_USD&#10;FRML &lt;&gt; STOCK_ULTIMO_IN_CURRENCY__10_HIST_USD = STOCK_PRIMO_IN_CURRENCY__10_HIST_USD&#45;AMORTIZING_IN_CURRENCY__10_HIST_USD $">
<polygon fill="springgreen" stroke="black" points="2217.6,-276.5 1577.5,-276.5 1577.5,-240.5 2217.6,-240.5 2217.6,-276.5"/>
<g id="a_node28_27"><a xlink:title="STOCK_ULTIMO_IN_CURRENCY__10_HIST_USD&#10;FRML &lt;&gt; STOCK_ULTIMO_IN_CURRENCY__10_HIST_USD = STOCK_PRIMO_IN_CURRENCY__10_HIST_USD&#45;AMORTIZING_IN_CURRENCY__10_HIST_USD $">
<text xml:space="preserve" text-anchor="start" x="1583.3" y="-253.45" font-family="Times New Roman,serif" font-size="14.00" fill="blue">STOCK_ULTIMO_IN_CURRENCY__10_HIST_USD(&#45;1):STOCK_ULTIMO_IN_CURRENCY__10_HIST_USD</text>
</a>
</g>
</a>
</g>
</g>
<!-- STOCK_ULTIMO_IN_CURRENCY__10_HIST_USD&#45;&gt;STOCK_ULTIMO_IN_CURRENCY__10_HIST_USD(&#45;1) -->
<g id="edge21" class="edge">
<title>STOCK_ULTIMO_IN_CURRENCY__10_HIST_USD&#45;&gt;STOCK_ULTIMO_IN_CURRENCY__10_HIST_USD(&#45;1)</title>
<g id="a_edge21"><a xlink:href="bogus" xlink:title="NA">
<path fill="none" stroke="black" stroke-width="0.5" d="M1468.97,-214.93C1501.54,-220.89 1538.42,-227.09 1572.25,-231.5 1592.83,-234.18 1614.18,-236.65 1635.66,-238.92"/>
<polygon fill="black" stroke="black" stroke-width="0.5" points="1635.16,-242.38 1645.46,-239.93 1635.88,-235.42 1635.16,-242.38"/>
</a>
</g>
</g>
<!-- AMORTIZING_SHARE_PR_TIME__10_HIST_DOM&#45;&gt;AMORTIZING_IN_CURRENCY__10_HIST_DOM -->
<g id="edge39" class="edge">
<title>AMORTIZING_SHARE_PR_TIME__10_HIST_DOM&#45;&gt;AMORTIZING_IN_CURRENCY__10_HIST_DOM</title>
<g id="a_edge39"><a xlink:href="bogus" xlink:title="NA">
<path fill="none" stroke="black" stroke-width="0.5" d="M833.11,-330.5C841.89,-330.5 850.72,-330.5 859.52,-330.5"/>
<polygon fill="black" stroke="black" stroke-width="0.5" points="859.46,-334 869.46,-330.5 859.46,-327 859.46,-334"/>
</a>
</g>
</g>
<!-- AMORTIZING_SHARE_PR_TIME__10_HIST_USD&#45;&gt;AMORTIZING_IN_CURRENCY__10_HIST_USD -->
<g id="edge29" class="edge">
<title>AMORTIZING_SHARE_PR_TIME__10_HIST_USD&#45;&gt;AMORTIZING_IN_CURRENCY__10_HIST_USD</title>
<g id="a_edge29"><a xlink:href="bogus" xlink:title="NA">
<path fill="none" stroke="black" stroke-width="0.5" d="M830.58,-276.5C841.13,-276.5 851.77,-276.5 862.35,-276.5"/>
<polygon fill="black" stroke="black" stroke-width="0.5" points="862.13,-280 872.13,-276.5 862.13,-273 862.13,-280"/>
</a>
</g>
</g>
<!-- INTEREST_IN_CURRENCY__10_HIST_DOM&#45;&gt;INTEREST_PAYMENTS__10_HIST_DOM -->
<g id="edge11" class="edge">
<title>INTEREST_IN_CURRENCY__10_HIST_DOM&#45;&gt;INTEREST_PAYMENTS__10_HIST_DOM</title>
<g id="a_edge11"><a xlink:href="bogus" xlink:title="NA">
<path fill="none" stroke="black" stroke-width="0.5" d="M2846.76,-464.07C2879.8,-457.7 2917.03,-450.52 2950.87,-443.99"/>
<polygon fill="black" stroke="black" stroke-width="0.5" points="2951.36,-447.46 2960.51,-442.13 2950.03,-440.59 2951.36,-447.46"/>
</a>
</g>
</g>
<!-- STOCK_ULTIMO_IN_CURRENCY__10_HIST_USD(&#45;1)&#45;&gt;STOCK_PRIMO_IN_CURRENCY__10_HIST_USD -->
<g id="edge35" class="edge">
<title>STOCK_ULTIMO_IN_CURRENCY__10_HIST_USD(&#45;1)&#45;&gt;STOCK_PRIMO_IN_CURRENCY__10_HIST_USD</title>
<g id="a_edge35"><a xlink:href="bogus" xlink:title="NA">
<path fill="none" stroke="black" stroke-width="0.5" d="M1577.23,-248.13C1462.35,-242.82 1331.9,-234.96 1213.4,-223.5 1193.63,-221.59 1172.77,-219.1 1152.4,-216.4"/>
<polygon fill="black" stroke="black" stroke-width="0.5" points="1152.92,-212.94 1142.55,-215.07 1151.99,-219.87 1152.92,-212.94"/>
</a>
</g>
</g>
<!-- DOM_DOM -->
<g id="node29" class="node">
<title>DOM_DOM</title>
<g id="a_node29"><a xlink:title="DOM_DOM&#10;Exogen">
<polygon fill="yellow" stroke="black" points="1418.12,-396.5 1331.52,-396.5 1331.52,-360.5 1418.12,-360.5 1418.12,-396.5"/>
<g id="a_node29_28"><a xlink:title="DOM_DOM&#10;Exogen">
<text xml:space="preserve" text-anchor="start" x="1337.32" y="-373.45" font-family="Times New Roman,serif" font-size="14.00" fill="blue">DOM_DOM:</text>
</a>
</g>
</a>
</g>
</g>
<!-- DOM_DOM&#45;&gt;STOCK_ULTIMO__10_HIST_DOM -->
<g id="edge28" class="edge">
<title>DOM_DOM&#45;&gt;STOCK_ULTIMO__10_HIST_DOM</title>
<g id="a_edge28"><a xlink:href="bogus" xlink:title="NA">
<path fill="none" stroke="black" stroke-width="0.5" d="M1418.24,-386.2C1457.95,-393.23 1518.98,-403.54 1572.25,-410.5 1639.47,-419.28 1714.8,-426.85 1775.94,-432.42"/>
<polygon fill="black" stroke="black" stroke-width="0.5" points="1775.37,-435.89 1785.65,-433.3 1776,-428.92 1775.37,-435.89"/>
</a>
</g>
</g>
<!-- DOM_DOM&#45;&gt;INTEREST_PAYMENTS__10_HIST_DOM -->
<g id="edge6" class="edge">
<title>DOM_DOM&#45;&gt;INTEREST_PAYMENTS__10_HIST_DOM</title>
<g id="a_edge6"><a xlink:href="bogus" xlink:title="NA">
<path fill="none" stroke="black" stroke-width="0.5" d="M1418.55,-379.84C1546.17,-383.84 1935.74,-395.9 2258.85,-404.5 2489.54,-410.64 2757.75,-416.83 2917.14,-420.41"/>
<polygon fill="black" stroke="black" stroke-width="0.5" points="2916.64,-423.9 2926.72,-420.62 2916.8,-416.9 2916.64,-423.9"/>
</a>
</g>
</g>
<!-- DOM_DOM&#45;&gt;AMORTIZING__10_HIST_DOM -->
<g id="edge27" class="edge">
<title>DOM_DOM&#45;&gt;AMORTIZING__10_HIST_DOM</title>
<g id="a_edge27"><a xlink:href="bogus" xlink:title="NA">
<path fill="none" stroke="black" stroke-width="0.5" d="M1418.6,-370.17C1458.3,-362.66 1519.09,-351.71 1572.25,-344.5 1642.73,-334.94 1722.21,-327.05 1784.84,-321.5"/>
<polygon fill="black" stroke="black" stroke-width="0.5" points="1785.13,-324.98 1794.78,-320.62 1784.51,-318.01 1785.13,-324.98"/>
</a>
</g>
</g>
<!-- DOM_DOM&#45;&gt;STOCK_PRIMO__10_HIST_DOM -->
<g id="edge42" class="edge">
<title>DOM_DOM&#45;&gt;STOCK_PRIMO__10_HIST_DOM</title>
<g id="a_edge42"><a xlink:href="bogus" xlink:title="NA">
<path fill="none" stroke="black" stroke-width="0.5" d="M1418.43,-377.04C1603.87,-370.7 2344.21,-345.36 2633.02,-335.48"/>
<polygon fill="black" stroke="black" stroke-width="0.5" points="2632.89,-338.98 2642.77,-335.14 2632.65,-331.99 2632.89,-338.98"/>
</a>
</g>
</g>
</g>
</svg>
